<?xml version="1.0" encoding="utf-8" ?>
<svg baseProfile="full" height="200mm" version="1.1" viewBox="0,0,200,200" width="200mm" xmlns="http://www.w3.org/2000/svg" xmlns:ev="http://www.w3.org/2001/xml-events" xmlns:xlink="http://www.w3.org/1999/xlink"><defs /><rect fill="#1a1a1a" height="200" width="200" x="0" y="0" /><text alignment-baseline="middle" fill="#e1ed5e" style="dominant-baseline: central; font-size:9.0px; font-family:Arial;" text-anchor="middle" x="100.0" y="100.0">2023</text><line stroke="#e1ed5e" stroke-width="0.3" x1="100.0" x2="100.0" y1="15.0" y2="10.0" /><path d="M 100.0 14.0 a86.0,86.0 0 0,1 42.46469731375804,11.215312516191453" fill="none" id="id13" stroke="none" /><text fill="#e1ed5e" style="font-size:6.75px; font-family:Arial;" text-anchor="middle"><textPath startOffset="22.20632615414155" xlink:href="#id13">January</textPath></text><path d="M 102.88285421437855 79.19881850522331 l 2.7078107051294813 -19.538158277295803 a40.724904757272625,40.724904757272625 0 0,0 0.6935471052518712,0.10221081489178396 l -3.043726790810008 19.48865297824305" fill="#fff116" stroke="none" /><path d="M 103.2404852339499 79.25152402106235 l 2.0373252632634355 -13.044772999807378 a34.20290865093124,34.20290865093124 0 0,0 0.5809132657565323,0.09585566630675925 l -2.261567735158843 13.007771070560995" fill="#ff9d0e" stroke="none" /><path d="M 105.01212808612495 79.60689891045804 l 4.903123044498456 -19.94958671900689 a41.54328663696897,41.54328663696897 0 0,0 0.6929640020828767,0.17665195361805902 l -5.245795935266358 19.862231769219964" fill="#fffb17" stroke="none" /><path d="M 105.71112130821622 79.79150937346287 l 5.790690299180389 -20.490041152481865 a42.29257806305808,42.29257806305808 0 0,0 0.6988542050274641,0.20401470629161741 l -6.14253472193128 20.387328117271544" fill="#f9ff18" stroke="none" /><path d="M 109.41281617654863 81.2277094730956 l 11.994447999452493 -23.920924230577036 a47.75962254697509,47.75962254697509 0 0,0 0.7317217938670877,0.37481632304738693 l -12.404430280908338 23.71091538221715" fill="#b8ff1f" stroke="none" /><path d="M 110.36928655335952 81.73862282372117 l 1.5912678064671721 -2.802385820165441 a24.222654110661455,24.222654110661455 0 0,0 0.3608059692465262,0.20900210580146109 l -1.6392705081790266 2.77457955697393" fill="#ff1001" stroke="none" /><line stroke="#e1ed5e" stroke-width="0.3" x1="143.23703022742887" x2="145.7803849466894" y1="26.81831364943548" y2="22.513508569990506" /><path d="M 143.74570117128098 25.957352633546492 a86.0,86.0 0 0,1 28.547481713284135,27.462654790039103" fill="none" id="id14" stroke="none" /><text fill="#e1ed5e" style="font-size:6.75px; font-family:Arial;" text-anchor="middle"><textPath startOffset="19.985693538727396" xlink:href="#id14">February</textPath></text><path d="M 111.2981086023043 82.29822771554956 l 11.379436207530546 -17.829195625722022 a42.1511650993869,42.1511650993869 0 0,0 0.6082472822250029,0.39562095185802443 l -11.684650515539829 17.63067574970447" fill="#fbff18" stroke="none" /><path d="M 115.19652480421416 85.50635884689758 l 14.520498543745338 -13.84888308140225 a41.06580276393795,41.06580276393795 0 0,0 0.4834670663219593,0.5157289575859116 l -14.75673293203776 13.596884706938283" fill="#fff517" stroke="none" /><path d="M 115.4437574822437 85.77008943001954 l 14.26184188660908 -13.140891058602959 a40.39286342479389,40.39286342479389 0 0,0 0.46674215160734167,0.5153883413750143 l -14.485927678832457 12.893449929958395" fill="#ffed16" stroke="none" /><path d="M 116.38621287248628 86.86637796730983 l 9.009850357558921 -7.2214348787062175 a32.54671057803907,32.54671057803907 0 0,0 0.3466161433746525,0.44016730266534276 l -9.132820581527538 7.065275182087837" fill="#ff860c" stroke="none" /><path d="M 116.82858285166822 87.43820079747576 l 21.389914316687225 -15.966633136835277 a47.6919802225595,47.6919802225595 0 0,0 0.4854075836581746,0.6620953985977357 l -21.661584512859026 15.596075294566047" fill="#b9ff1f" stroke="none" /><path d="M 117.2510076193507 88.02491185347247 l 21.599108583576204 -14.99339834993822 a47.2930311239508,47.2930311239508 0 0,0 0.4584620991049289,0.6727365591847988 l -21.853995148349863 14.619383767483015" fill="#beff1f" stroke="none" /><path d="M 117.45458315368197 88.32363383020206 l 17.698969088062128 -11.839849859522664 a42.29402619224973,42.29402619224973 0 0,0 0.39958462384773324,0.6085947960453805 l -17.900150347267786 11.53343699949961" fill="#f9ff18" stroke="none" /><line stroke="#e1ed5e" stroke-width="0.3" x1="172.23445277983987" x2="176.4835382374775" y1="55.19839476539836" y2="52.563006222186495" /><path d="M 173.08426987136738 54.67131705675599 a86.0,86.0 0 0,1 12.851231095245387,41.99856678651699" fill="none" id="id15" stroke="none" /><text fill="#e1ed5e" style="font-size:6.75px; font-family:Arial;" text-anchor="middle"><textPath startOffset="22.20632615414155" xlink:href="#id15">March</textPath></text><path d="M 118.03404312379186 89.2402003453031 l 18.094378806965125 -10.795798230197539 a42.07025875107102,42.07025875107102 0 0,0 0.36569136797800317,0.6250850884729933 l -18.277529849413458 10.482733729370649" fill="#fcff18" stroke="none" /><path d="M 118.3937258080291 89.86733742301442 l 20.274266994848197 -11.168607632763479 a44.14700193616905,44.14700193616905 0 0,0 0.3609372702965227,0.6687619449882923 l -20.463512364363186 10.817964704442728" fill="#e3ff1b" stroke="none" /><path d="M 118.89224826269711 90.83032412892265 l 20.94640777268408 -10.16669732835214 a44.28333595397967,44.28333595397967 0 0,0 0.3269413518579669,0.6886218674528576 l -21.118307318383803 9.804633045258742" fill="#e1ff1b" stroke="none" /><path d="M 119.34039704204932 91.81776055985345 l 19.40150818253146 -8.20809340699108 a42.066355098467454,42.066355098467454 0 0,0 0.27639260549203565,0.6693066174637772 l -19.539922474909694 7.872912219074001" fill="#fcff18" stroke="none" /><path d="M 119.7369772167798 92.82701384747503 l 13.035027205713764 -4.737304432052544 a34.86917400336598,34.86917400336598 0 0,0 0.2001605476577356,0.5658808221376435 l -13.114640834181309 4.512225983488286" fill="#ffa60f" stroke="none" /><path d="M 119.97218684219823 93.5106431181261 l 26.68832306032577 -8.671561821726721 a49.06176352619958,49.06176352619958 0 0,0 0.2540570352445352,0.8054302290706516 l -26.833635579338516 8.21088142622965" fill="#a9ff21" stroke="none" /><path d="M 120.18372546131832 94.20196356495316 l 17.142245551604624 -4.924331956318212 a38.83551590976626,38.83551590976626 0 0,0 0.17903770056885032,0.6440938674888117 l -17.224470022739837 4.628526785410449" fill="#ffd914" stroke="none" /><path d="M 120.37134235888165 94.90015583598534 l 21.483838219448774 -5.378350873197221 a43.14682737447215,43.14682737447215 0 0,0 0.17416360638875356,0.7220205879253203 l -21.573234626098348 5.007745053612496" fill="#efff19" stroke="none" /><path d="M 120.53481517161879 95.60439243477599 l 22.9410479227765 -4.9106769630385605 a44.46074227364611,44.46074227364611 0 0,0 0.15375097181209724,0.749744342102028 l -23.022178190503595 4.5150569647731205" fill="#dfff1b" stroke="none" /><path d="M 120.6074358757038 95.95851677861258 l 22.55429981314361 -4.423297726838054 a43.983950984141536,43.983950984141536 0 0,0 0.1393124123473527,0.744212477356075 l -22.627097949400824 4.0344071720194155" fill="#e5ff1a" stroke="none" /><path d="M 120.73433829027371 96.67025291283417 l 33.98684238520343 -5.457979311892541 a55.42230372136222,55.42230372136222 0 0,0 0.1431587309000504,0.9432371687281175 l -34.07575700954278 4.8721430307723415" fill="#64ff29" stroke="none" /><path d="M 120.83666639777658 97.38593545837742 l 11.133774436541525 -1.3967879704640631 a32.221049408955416,32.221049408955416 0 0,0 0.06430346698015436,0.5509128356204641 l -11.15616825652527 1.2049313965187463" fill="#ff820c" stroke="none" /><path d="M 120.94382443527127 98.46500227214037 l 21.774892254416987 -1.5959076737975666 a42.83329691079098,42.83329691079098 0 0,0 0.04756415091866859,0.7357963623203005 l -21.79913699634007 1.220852247224231" fill="#f3ff19" stroke="none" /><line stroke="#e1ed5e" stroke-width="0.3" x1="184.98032266829074" x2="189.97916517819016" y1="98.17113171792111" y2="98.06355123074" /><path d="M 185.9800911702706 98.14961562048488 a86.0,86.0 0 0,1 -9.607161424134198,41.387399972396054" fill="none" id="id16" stroke="none" /><text fill="#e1ed5e" style="font-size:6.75px; font-family:Arial;" text-anchor="middle"><textPath startOffset="21.466115282336823" xlink:href="#id16">April</textPath></text><path d="M 120.95626037817324 101.35467743843564 l 8.397279209688953 0.5428260808144201 a29.41480589672077,29.41480589672077 0 0,0 -0.037011447524375976,0.5049917957381451 l -8.38669120350024 -0.6872910130493354" fill="#ff5b08" stroke="none" /><path d="M 120.8583938346157 102.4346265915055 l 20.878711598058093 2.4369981148140134 a42.020455699306154,42.020455699306154 0 0,0 -0.09004081367754553,0.7177138769568651 l -20.8336692751337 -2.7960297460582737" fill="#fdff18" stroke="none" /><path d="M 120.81339534386255 102.79330883721812 l 8.997652514957535 1.2075503236746017 a30.07832190242934,30.07832190242934 0 0,0 -0.07328504209361629,0.512555413715008 l -8.975533421847318 -1.362251209370019" fill="#ff6409" stroke="none" /><path d="M 120.70491114924044 103.5080841355445 l 10.362001699893737 1.7556594913094272 a31.50968217778376,31.50968217778376 0 0,0 -0.0952095921400876,0.5339859551156633 l -10.330245665414461 -1.9337641971583088" fill="#ff780b" stroke="none" /><path d="M 120.41448212921028 104.9243191809786 l 43.667449428207696 10.5333291064021 a65.91989716850267,65.91989716850267 0 0,0 -0.2755724349632185,1.1007748936562054 l -43.47966567894942 -11.283431839455702" fill="#36ff70" stroke="none" /><path d="M 120.13307415673323 105.97154293290107 l 10.08797262346047 2.992129326994915 a31.52235855505556,31.52235855505556 0 0,0 -0.15877245726605457,0.5188775768583628 l -10.034973393688283 -3.165333876405335" fill="#ff780b" stroke="none" /><path d="M 119.9155931802556 106.66101706037122 l 24.43522197527553 8.17266294697325 a46.765723211775324,46.765723211775324 0 0,0 -0.2619084689178933,0.7612286073121486 l -24.290922675414407 -8.5920642573747" fill="#c4ff1e" stroke="none" /><path d="M 119.79798401119884 107.00284435728193 l 9.907684692705821 3.5044969126552057 a31.509220455432796,31.509220455432796 0 0,0 -0.18526782289922814,0.5097774792548938 l -9.845892608801366 -3.6745221889162307" fill="#ff780b" stroke="none" /><path d="M 119.54520255179757 107.68017299344265 l 16.99607997609599 6.678510190972603 a39.261139967832676,39.261139967832676 0 0,0 -0.2525751129013713,0.626870716686956 l -16.878602248937227 -6.970080275502373" fill="#ffdf14" stroke="none" /><path d="M 119.41010516605496 108.01547362559984 l 15.60959508549186 6.4460391452625325 a37.888187569874646,37.888187569874646 0 0,0 -0.2541197163627905,0.6006639437309469 l -15.49632438793676 -6.7137776146596435" fill="#ffcd13" stroke="none" /><path d="M 119.12269723197855 108.67885076344098 l 11.925506604299951 5.412400292782362 a34.09625078785957,34.09625078785957 0 0,0 -0.24715784954795833,0.5323560197317864 l -11.83057413791216 -5.616876379792979" fill="#ff9b0e" stroke="none" /><path d="M 118.64920377521936 109.65438752849418 l 9.423743601673939 4.87851780678275 a31.61163886782748,31.61163886782748 0 0,0 -0.25431938560094924,0.4810764347941531 l -9.338371707848097 -5.040009256663038" fill="#ff7a0b" stroke="none" /><line stroke="#e1ed5e" stroke-width="0.3" x1="174.80103733775053" x2="179.2010983576182" y1="140.37084112569926" y2="142.7455964860345" /><path d="M 175.68104954172406 140.8457921977663 a86.0,86.0 0 0,1 -30.038265399797805,32.042727171017184" fill="none" id="id17" stroke="none" /><text fill="#e1ed5e" style="font-size:6.75px; font-family:Arial;" text-anchor="middle"><textPath startOffset="22.206326154141568" xlink:href="#id17">May</textPath></text><path d="M 117.55443506779139 111.5257021239791 l 17.596587176313005 11.553377901914514 a42.05042567735935,42.05042567735935 0 0,0 -0.402476427490786,0.6016476503799412 l -17.395107643411496 -11.854562466500262" fill="#fcff18" stroke="none" /><path d="M 117.14729908036423 112.12312394758627 l 14.697988495635101 10.39146372135223 a39.000371776438435,39.000371776438435 0 0,0 -0.3922698392403813,0.5448284978152003 l -14.516938864019119 -10.642925824618562" fill="#ffdb14" stroke="none" /><path d="M 116.71984013943494 112.70617746262583 l 16.80052615499752 12.76749448623016 a42.10134106024243,42.10134106024243 0 0,0 -0.4434537918334593,0.5732238041174569 l -16.578265545945992 -13.054796284460869" fill="#fcff18" stroke="none" /><path d="M 116.27256486870786 113.27417163493432 l 15.7555817590848 12.852448164487747 a41.33282519444974,41.33282519444974 0 0,0 -0.45447212729044645,0.5474409542628822 l -15.53201363190081 -13.1217503758644" fill="#fff917" stroke="none" /><path d="M 116.0416608686014 113.55231037782055 l 22.83487141397056 19.291348157438765 a50.89293338272586,50.89293338272586 0 0,0 -0.5711095695978434,0.6643294538596154 l -22.49941933480194 -19.68155471045991" fill="#95ff23" stroke="none" /><path d="M 115.56566222782051 114.09645910891815 l 11.688154009950486 10.584938992542597 a36.76876271735263,36.76876271735263 0 0,0 -0.42888764291278597,0.46547283004360285 l -11.50421995904198 -10.784563077387533" fill="#ffbf11" stroke="none" /><path d="M 115.07121518719521 114.62390073753431 l 16.453961439873613 15.965607009603662 a43.926697412622545,43.926697412622545 0 0,0 -0.531218886584964,0.5381219274967662 l -16.17670192823311 -16.246469431081096" fill="#e5ff1a" stroke="none" /><path d="M 114.55890576462653 115.13401014063108 l 14.305524493277243 14.870619828746298 a41.634518776042675,41.634518776042675 0 0,0 -0.5207569588023573,0.49240820855812345 l -14.047431700084077 -15.114662674050342" fill="#fffd17" stroke="none" /><path d="M 114.29624159901734 115.38237550388516 l 18.578331255032083 19.989790017266685 a48.29003659132975,48.29003659132975 0 0,0 -0.6137444058327398,0.5606409629887992 l -18.23148729973248 -20.306623746842067" fill="#b2ff20" stroke="none" /><path d="M 113.75828350139079 115.86535959552629 l 20.81955795288153 24.008065650702314 a52.77799883003687,52.77799883003687 0 0,0 -0.6914785502533025,0.5892930218326425 l -20.40321392605118 -24.362883062757902" fill="#80ff26" stroke="none" /><path d="M 113.20401910651253 116.32954008644616 l 17.598099496328054 21.763742452388602 a48.98845460929495,48.98845460929495 0 0,0 -0.6602769057389086,0.5245639069966523 l -17.220865097871794 -22.06344027339038" fill="#aaff21" stroke="none" /><path d="M 112.63410532772338 116.77436683061366 l 14.873741415131297 19.747943219503128 a45.72265044619835,45.72265044619835 0 0,0 -0.6327471148554085,0.46809118872294314 l -14.531609329857323 -20.001044356965842" fill="#d0ff1d" stroke="none" /><path d="M 112.34349029814194 116.9893568818739 l 12.698296294927594 17.477705441124424 a42.60363201594774,42.60363201594774 0 0,0 -0.597004030317893,0.4259465241916933 l -12.395564936760817 -17.693696227160338" fill="#f6ff19" stroke="none" /><path d="M 111.7513745106137 117.40417183066458 l 15.087272028607478 22.344745681001264 a47.96133225220568,47.96133225220568 0 0,0 -0.6881887090346929,0.45609395056486896 l -14.700408620832821 -22.60113765265745" fill="#b6ff1f" stroke="none" /><line stroke="#e1ed5e" stroke-width="0.3" x1="143.8653032363475" x2="146.44561519142675" y1="172.8068346515853" y2="177.08958963109032" /><path d="M 144.38136562736335 173.6633856474863 a86.0,86.0 0 0,1 -40.68145358897372,12.25698825130547" fill="none" id="id18" stroke="none" /><text fill="#e1ed5e" style="font-size:6.75px; font-family:Arial;" text-anchor="middle"><textPath startOffset="21.466115282336833" xlink:href="#id18">June</textPath></text><path d="M 110.5260780823613 118.17145234162733 l 9.72094534079034 16.78152998615319 a40.39372390735704,40.39372390735704 0 0,0 -0.6046579485201108,0.3433405637728125 l -9.430638625349031 -16.94637371572063" fill="#ffed16" stroke="none" /><path d="M 110.21172684928248 118.3499491758327 l 13.451273639944311 24.171248534770523 a48.6619959197869,48.6619959197869 0 0,0 -0.7354384492324407,0.40101968085462036 l -13.033212378843222 -24.399208867384914" fill="#aeff20" stroke="none" /><path d="M 109.89434966115114 118.52300852407294 l 6.239612232412927 11.681049743136715 a34.243099482844315,34.243099482844315 0 0,0 -0.5223036328592994,0.2732445751178138 l -6.037617697027132 -11.786723737199246" fill="#ff9d0e" stroke="none" /><path d="M 109.57404056367764 118.69057910512821 l 12.353060170562268 24.11582098202574 a48.09558851943697,48.09558851943697 0 0,0 -0.7400905470359022,0.3710967643115312 l -11.936115715843604 -24.32488558724657" fill="#b4ff20" stroke="none" /><path d="M 108.92500713936063 119.00905698771935 l 12.090665907042622 25.751481613146744 a49.44860290678538,49.44860290678538 0 0,0 -0.7735927914032005,0.35511850820282426 l -11.645605119872002 -25.955787191683644" fill="#a5ff21" stroke="none" /><path d="M 108.2653958097858 119.30500536409082 l 9.094731821172369 21.24203736073107 a44.10710492757022,44.10710492757022 0 0,0 -0.7005227777278493,0.29281857790432053 l -8.727737583947057 -21.395440981655366" fill="#e3ff1b" stroke="none" /><path d="M 107.93186726928326 119.44442032107085 l 8.906176614841382 21.832871841325726 a44.57953084212028,44.57953084212028 0 0,0 -0.7130154690385616,0.2837235700926834 l -8.529040069760955 -21.98294225582448" fill="#deff1b" stroke="none" /><path d="M 107.2578585660854 119.70592522655815 l 11.888988994531559 32.27997983322162 a55.39978426306315,55.39978426306315 0 0,0 -0.8976887109549062,0.3218792335139074 l -11.331580722946917 -32.479846607775485" fill="#64ff29" stroke="none" /><path d="M 106.57524785965236 119.94407469862006 l 8.347583428426704 25.31993181140813 a47.660478165796306,47.660478165796306 0 0,0 -0.7813564435829979,0.25016565881204456 l -7.910505639752765 -25.45987031687988" fill="#b9ff1f" stroke="none" /><path d="M 106.2309692047433 120.05430185196036 l 5.157898018834535 16.600634731526867 a38.3834687407972,38.3834687407972 0 0,0 -0.6326418618562122,0.1906098033369503 l -4.871381182538077 -16.686959903969544" fill="#ffd413" stroke="none" /><path d="M 105.53697534728816 120.25689768951611 l 7.532202147391505 27.556389311213362 a49.56726555098201,49.56726555098201 0 0,0 -0.8249634777985067,0.21788035246295684 l -7.056748226781501 -27.681961012979905" fill="#a3ff21" stroke="none" /><path d="M 105.18746579009965 120.34920634021253 l 5.680609637996382 22.283693491030753 a43.99635452547868,43.99635452547868 0 0,0 -0.7354655114020213,0.18075952891562544 l -5.29619084185115 -22.378174278260406" fill="#e5ff1a" stroke="none" /><path d="M 104.83641907484287 120.43548508189849 l 5.508241869732149 23.274160657812143 a44.91709185543094,44.91709185543094 0 0,0 -0.753922372709971,0.17159027746827896 l -5.106799347629317 -23.365527668858107" fill="#daff1c" stroke="none" /><path d="M 104.13013068566511 120.58985236759428 l 7.775722206531998 38.76414197729822 a60.536319493211415,60.536319493211415 0 0,0 -1.02344542451068,0.19614575142811175 l -7.107309167449613 -38.8922449270748" fill="#2fff2f" stroke="none" /><path d="M 103.7750983002368 120.6578951692458 l 3.2166503550306427 17.601985576421143 a38.893483052191286,38.893483052191286 0 0,0 -0.6596168567653486,0.11468284556480189 l -2.913184526793244 -17.65474700050695" fill="#ffda14" stroke="none" /><path d="M 103.06178313531738 120.77559828337769 l 4.326334196519455 29.356155329796348 a50.67323749318743,50.67323749318743 0 0,0 -0.8640303589671403,0.11974673469028421 l -3.8203752463654848 -29.426276629979235" fill="#97ff23" stroke="none" /><path d="M 102.34483914955558 120.86867818915974 l 3.3444190471171424 29.76477292150795 a50.95207581840786,50.95207581840786 0 0,0 -0.8724145523609228,0.09042933544010197 l -2.831571898150617 -29.817931625403812" fill="#94ff23" stroke="none" /><path d="M 101.98527174616119 120.90594882070398 l 1.4498535715957603 15.267715678675067 a36.336401710438125,36.336401710438125 0 0,0 -0.6231791213733454,0.053770516793081834 l -1.1868301324808732 -15.290410447746813" fill="#ffb911" stroke="none" /><path d="M 101.26447882468166 120.96189622390904 l 2.200279947160721 36.47513822743728 a57.54144141323018,57.54144141323018 0 0,0 -0.9891974719458488,0.051130210283443514 l -1.5720944068013925 -36.507608244482924" fill="#4eff2c" stroke="none" /><path d="M 100.90346689309514 120.98055641714683 l 0.1866479211895537 4.3343893070005635 a25.338406171755384,25.338406171755384 0 0,0 -0.43591668908840975,0.015013852169364836 l -0.11201088042649164 -4.336959957596022" fill="#ff2103" stroke="none" /><line stroke="#e1ed5e" stroke-width="0.3" x1="102.19456741930631" x2="102.32365962044197" y1="184.97166512339345" y2="189.96999836594603" /><path d="M 102.22038585953345 185.97133177190398 a86.0,86.0 0 0,1 -42.740103519485714,-10.115201625700543" fill="none" id="id19" stroke="none" /><text fill="#e1ed5e" style="font-size:6.75px; font-family:Arial;" text-anchor="middle"><textPath startOffset="22.20632615414155" xlink:href="#id19">July</textPath></text><path d="M 100.54218724476979 120.99299961872073 l 0.9377019993500828 36.30697310702692 a57.31908012648395,57.31908012648395 0 0,0 -0.9865440998087319,0.016984251353557828 l -0.31259820964868285 -36.317734835659635" fill="#50ff2b" stroke="none" /><path d="M 99.81925306533755 120.99922214144158 l -0.2209369115867929 25.668503282335333 a46.66945410160024,46.66945410160024 0 0,0 -0.8032486649058234,-0.013828654215067756 l 0.6627452663852841 -25.660897150841105" fill="#c5ff1e" stroke="none" /><path d="M 99.45781275523022 120.99299961872073 l -0.7642776309532843 29.592138453961194 a50.60200632686211,50.60200632686211 0 0,0 -0.8705464309679157,-0.0299833792747249 l 1.2735444135958431 -29.574598276260375" fill="#98ff23" stroke="none" /><path d="M 99.09653310690486 120.98055641714683 l -0.18440957275509495 4.282409764673908 a25.28637845775407,25.28637845775407 0 0,0 -0.4346992538029209,-0.022468986109799343 l 0.2580968949715048 -4.278600971801906" fill="#ff2003" stroke="none" /><path d="M 98.73552117531835 120.96189622390904 l -1.8080127519677818 29.97232926205353 a51.02681187712456,51.02681187712456 0 0,0 -0.8762937410294811,-0.0604343469257224 l 2.3236692537761927 -29.93676657061152" fill="#93ff23" stroke="none" /><path d="M 98.37488393609728 120.93702456842531 l -1.1946714775752016 15.391433653741965 a36.43772877909417,36.43772877909417 0 0,0 -0.6249169080182535,-0.05392046033702935 l 1.459432703334997 -15.368588941126271" fill="#ffba11" stroke="none" /><path d="M 98.01472825383883 120.90594882070398 l -0.3985180701909001 4.196603510651221 a25.21548308950218,25.21548308950218 0 0,0 -0.4317459895156128,-0.04475223711613484 l 0.4706966563121063 -4.189121905079325" fill="#ff1f03" stroke="none" /><path d="M 97.65516085044442 120.86867818915974 l -3.43215237822176 30.54558496724355 a51.73780133546361,51.73780133546361 0 0,0 -0.8841560995672902,-0.1070589905688345 l 3.9574359008404394 -30.48198044794937" fill="#8bff24" stroke="none" /><path d="M 96.93821686468263 120.77559828337769 l -4.621230091887627 31.357158793077726 a52.69585422632524,52.69585422632524 0 0,0 -0.8962413936265203,-0.1399744735492663 l 5.1603073491226645 -31.272966012181353" fill="#81ff25" stroke="none" /><path d="M 96.58105272829116 120.7198165907248 l -4.85643967506366 29.431439374303185 a50.82942557208932,50.82942557208932 0 0,0 -0.8620453427135475,-0.1498776325897376 l 5.362333989249257 -29.34348316319244" fill="#95ff23" stroke="none" /><path d="M 96.22490169976321 120.6578951692458 l -0.7635301574740277 4.178149732065743 a25.247341931718395,25.247341931718395 0 0,0 -0.42683923960676434,-0.08180475615658658 l 0.8353370116524871 -4.1643877775606875" fill="#ff1f03" stroke="none" /><path d="M 95.86986931433489 120.58985236759428 l -5.785485629158668 28.842258041050886 a50.416792701988534,50.416792701988534 0 0,0 -0.8494234164432439,-0.17800493570486742 l 6.281100507031299 -28.73839712461948" fill="#9aff23" stroke="none" /><path d="M 95.51606077576429 120.51570834832081 l -6.58987617823442 30.15116195007047 a51.862907105194076,51.862907105194076 0 0,0 -0.8705061784995548,-0.19812437210169845 l 7.1079025061268375 -30.033260844391087" fill="#8aff24" stroke="none" /><path d="M 95.16358092515715 120.4354850818985 l -0.9599114194348626 4.0559461842008675 a25.167988649492106,25.167988649492106 0 0,0 -0.42072094023925544,-0.10340297102118837 l 1.0295856444173286 -4.038821954865649" fill="#ff1e03" stroke="none" /><path d="M 94.81253420990036 120.34920634021253 l -10.946813581484538 42.94177105950439 a65.31510385088433,65.31510385088433 0 0,0 -1.0870596678401987,-0.28710233840817007 l 11.684363692136225 -42.74697737179264" fill="#35ff69" stroke="none" /><path d="M 94.46302465271185 120.25689768951611 l -5.5573096583319455 20.331290301468535 a42.07712162419665,42.07712162419665 0 0,0 -0.6970151975680656,-0.1969834571293604 l 5.906456024004625 -20.232618051000653" fill="#fcff18" stroke="none" /><path d="M 94.11515582081647 120.15858648285463 l -1.1771907571750377 4.032477490104504 a25.20079192378983,25.20079192378983 0 0,0 -0.4153630832737048,-0.12514548971503972 l 1.2464288148889884 -4.011616631283738" fill="#ff1f03" stroke="none" /><path d="M 93.76903079525671 120.05430185196036 l -9.204896538257053 29.62585235596219 a52.02291488718117,52.02291488718117 0 0,0 -0.8528751981812965,-0.2730637055465882 l 9.71349308152929 -29.463015803755898" fill="#88ff25" stroke="none" /><path d="M 93.42475214034765 119.94407469862007 l -9.951919425912635 30.186211784196363 a52.78439998081154,52.78439998081154 0 0,0 -0.8604617972466433,-0.2919153596260107 l 10.470050956096504 -30.01043343767223" fill="#80ff26" stroke="none" /><path d="M 93.08242187328487 119.8279376855182 l -1.4110706772973696 4.044568915132744 a25.28365009840749,25.28365009840749 0 0,0 -0.40969197925573125,-0.1469009676186672 l 1.4804822171828274 -4.0196804064741185" fill="#ff2003" stroke="none" /><path d="M 92.7421414339146 119.70592522655815 l -10.885047009896896 29.55416126003284 a52.494963028898624,52.494963028898624 0 0,0 -0.8452433457218381,-0.3195987087539182 l 11.392160576379018 -29.362414301172286" fill="#83ff25" stroke="none" /><path d="M 92.40401165467489 119.57807347666478 l -16.476410098111277 42.46667489043884 a66.55096668536653,66.55096668536653 0 0,0 -1.064431765650241,-0.42355936692028445 l 17.204962939803377 -42.176768679112485" fill="#37ff77" stroke="none" /><path d="M 92.06813273071674 119.44442032107085 l -1.6979294244490206 4.16235575856831 a25.49534979632248,25.49534979632248 0 0,0 -0.40492508605567185,-0.1692587188116683 l 1.7693259700021546 -4.132511996736668" fill="#ff2303" stroke="none" /><path d="M 91.7346041902142 119.30500536409082 l -15.121920462762851 35.3193921219554 a59.42046249521954,59.42046249521954 0 0,0 -0.9368041254496263,-0.41066739846161604 l 15.72764526287022 -35.053860170199336" fill="#3bff2e" stroke="none" /><path d="M 91.40352486487194 119.15986991738527 l -12.586980609392365 28.053929934971674 a51.74825305049897,51.74825305049897 0 0,0 -0.8095693947721513,-0.3716336022685439 l 13.068017999931936 -27.833109262369053" fill="#8bff24" stroke="none" /><path d="M 91.07499286063937 119.00905698771935 l -6.523095816192137 13.893311027113969 a36.34844846632225,36.34844846632225 0 0,0 -0.5640713758581168,-0.27078853897295985 l 6.761279860050495 -13.778968211641446" fill="#ffb911" stroke="none" /><path d="M 90.7491055286396 118.85261126421891 l -13.437964905369968 27.385538698713663 a51.50486240940448,51.50486240940448 0 0,0 -0.7925521439493399,-0.3974020980888159 l 13.907370957002069 -27.150168759715545" fill="#8eff24" stroke="none" /><path d="M 90.42595943632237 118.69057910512821 l -7.754799861952923 15.139031352567477 a38.009620548177026,38.009620548177026 0 0,0 -0.5797536787189024,-0.3032997238547075 l 8.01424444319832 -15.003302209768052" fill="#ffcf13" stroke="none" /><line stroke="#e1ed5e" stroke-width="0.3" x1="58.666819895761336" x2="56.23545636021788" y1="174.27360380694188" y2="178.64263932499728" /><path d="M 58.180547188652646 175.14741091055294 a86.0,86.0 0 0,1 -31.652253787137756,-30.449443065178592" fill="none" id="id20" stroke="none" /><text fill="#e1ed5e" style="font-size:6.75px; font-family:Arial;" text-anchor="middle"><textPath startOffset="22.20632615414155" xlink:href="#id20">August</textPath></text><path d="M 89.7882731507175 118.34994917583269 l -24.589654443594632 44.18634731920528 a71.567622003302,71.567622003302 0 0,0 -1.0713033440597584,-0.6083139980569412 l 25.3466065545756 -43.75653015535371" fill="#3dffaf" stroke="none" /><path d="M 89.4739219176387 118.17145234162733 l -12.888884559218763 22.250428856028442 a46.71390537156989,46.71390537156989 0 0,0 -0.6923270581605903,-0.4090390292123312 l 13.269979488407735 -22.025271254522362" fill="#c4ff1e" stroke="none" /><path d="M 88.8546689885994 117.79835938074946 l -18.364553798751473 29.326982576196368 a55.602438400375235,55.602438400375235 0 0,0 -0.8068130871980612,-0.51494628528982 l 18.86664868799646 -29.006521862082746" fill="#62ff29" stroke="none" /><path d="M 88.54995079064634 117.60387380957326 l -18.95717559044765 29.145702413885132 a55.7684695603044,55.7684695603044 0 0,0 -0.8002119471938093,-0.5303368443762553 l 19.45606223638142 -28.81506754841756" fill="#60ff29" stroke="none" /><path d="M 88.24862548938628 117.40417183066458 l -3.212069404251094 4.757180344572893 a26.740048317611677,26.740048317611677 0 0,0 -0.3792542522024716,-0.2608545328897611 l 3.293480541076456 -4.701185022318031" fill="#ff3505" stroke="none" /><path d="M 87.95078237400918 117.19931262002967 l -18.582118262162968 26.52451562032622 a53.38587729245481,53.38587729245481 0 0,0 -0.7480954650467669,-0.5337462511443467 l 19.035941055058622 -26.200725107337654" fill="#79ff26" stroke="none" /><path d="M 87.65650970185807 116.9893568818739 l -17.89650740961257 24.632429238169145 a51.447356989330416,51.447356989330416 0 0,0 -0.7119702463495686,-0.5266985674447461 l 18.317862626380702 -24.32072072198463" fill="#8eff24" stroke="none" /><path d="M 87.36589467227662 116.77436683061367 l -5.3222139461410585 7.0663309168141515 a29.846411357970073,29.846411357970073 0 0,0 -0.4077179988651102,-0.312620775542393 l 5.443060673499655 -6.973670799444392" fill="#ff6109" stroke="none" /><path d="M 87.07902340077011 116.55440617244103 l -20.8269181362428 26.68352964652001 a54.849243321682565,54.849243321682565 0 0,0 -0.7392698739202255,-0.5873206983584278 l 21.283145502880384 -26.321075034156454" fill="#6aff28" stroke="none" /><path d="M 86.79598089348748 116.32954008644616 l -19.560819029455935 24.19105697201504 a52.11001251247583,52.11001251247583 0 0,0 -0.6926410044829542,-0.5699963919299565 l 19.974330162483575 -23.8507654612279" fill="#87ff25" stroke="none" /><path d="M 86.24171649860922 115.8653595955263 l -41.274850504172335 47.596078786578886 a84.0,84.0 0 0,0 -1.0842305883736492,-0.9567074329108447 l 42.08802344545257 -46.878548211895755" fill="#4dd2ff" stroke="none" /><path d="M 85.97065885151581 115.62618273729859 l -11.23384745739194 12.512501574680867 a37.815529261737275,37.815529261737275 0 0,0 -0.48061818081462004,-0.43903331282707364 l 11.447565187673415 -12.317275495267218" fill="#ffcc13" stroke="none" /><path d="M 85.44109423537348 115.13401014063109 l -25.778861068471315 26.79717494786416 a58.183844115072134,58.183844115072134 0 0,0 -0.7157999475280119,-0.7005609045745352 l 26.23631096837512 -26.349463940367055" fill="#47ff2c" stroke="none" /><path d="M 85.18274418774928 114.88116024355367 l -18.212657690027253 18.29120594126511 a46.81218927018553,46.81218927018553 0 0,0 -0.5661140155637329,-0.5734705089205504 l 18.52481233064652 -17.974994938363892" fill="#c3ff1e" stroke="none" /><path d="M 84.67929136418377 114.36230785411682 l -27.607907734009395 25.88087010263614 a58.8419873516059,58.8419873516059 0 0,0 -0.6863598172593214,-0.7449080239247433 l 28.049313959264445 -25.401810823910054" fill="#40ff2d" stroke="none" /><path d="M 84.43433777217949 114.09645910891817 l -31.124764879226895 28.1869777830935 a62.991150321606604,62.991150321606604 0 0,0 -0.7209221681080655,-0.8099636983128502 l 31.605345896983298 -27.647039915039787" fill="#32ff4d" stroke="none" /><path d="M 83.95833913139862 113.55231037782056 l -29.742139095621273 25.126743647418436 a59.93517797964157,59.93517797964157 0 0,0 -0.6590129686948606,-0.7938235741866901 l 30.17024806420967 -24.611058816117986" fill="#35ff2f" stroke="none" /><path d="M 83.72743513129214 113.27417163493432 l -24.77062922959923 20.206377209245122 a52.966885246338535,52.966885246338535 0 0,0 -0.5702316194496571,-0.7114516223831633 l 25.114778761103747 -19.7769977532837" fill="#7eff26" stroke="none" /><path d="M 83.50135304334701 112.99209946851258 l -16.859645752963456 13.276373220293642 a42.45949069292999,42.45949069292999 0 0,0 -0.44722618503185646,-0.5781001308501058 l 17.08567875521338 -12.984195095330284" fill="#f7ff18" stroke="none" /><path d="M 83.28015986056508 112.70617746262583 l -10.07217802430205 7.654312502073193 a33.65058378228559,33.65058378228559 0 0,0 -0.3465028386691595,-0.46419717708195674 l 10.202442129666293 -7.479802445481928" fill="#ff950d" stroke="none" /><path d="M 83.06392112726016 112.41649034213515 l -32.31826414186885 23.69376156118303 a61.07323962523869,61.07323962523869 0 0,0 -0.6142810644731997,-0.8531826720130932 l 32.72132499871766 -23.1339452837188" fill="#30ff36" stroke="none" /><path d="M 82.6465618267979 111.8261652097733 l -21.200007784383697 14.447557423736686 a46.65486787278583,46.65486787278583 0 0,0 -0.44654683618583974,-0.6675269318274734 l 21.44555772598027 -14.080493577703391" fill="#c5ff1e" stroke="none" /><path d="M 82.44556493220864 111.52570212397912 l -25.88851160176432 16.9976004356063 a51.96987977895958,51.96987977895958 0 0,0 -0.4845452243619001,-0.7520249485478531 l 26.17726168950327 -16.549453887137002" fill="#89ff24" stroke="none" /><path d="M 82.24976979558568 111.22182372390057 l -26.73825762393243 16.904119568285367 a52.63358467108445,52.63358467108445 0 0,0 -0.4775504295653442,-0.7699633478263875 l 27.025272693165732 -16.441359889093718" fill="#81ff25" stroke="none" /><path d="M 82.05923443525364 110.91462005526583 l -1.8097091115685557 1.1009723800269005 a23.118298196684393,23.118298196684393 0 0,0 -0.203902426063668,-0.34175219452834266 l 1.8283924133304557 -1.0696580916124467" fill="#ff0000" stroke="none" /><line stroke="#e1ed5e" stroke-width="0.3" x1="26.63291911575756" x2="22.317208475507996" y1="142.92168965132927" y2="145.44649492493687" /><path d="M 25.769776987707644 143.4266507060508 a86.0,86.0 0 0,1 -11.730757126820373,-40.83630448921669" fill="none" id="id21" stroke="none" /><text fill="#e1ed5e" style="font-size:6.75px; font-family:Arial;" text-anchor="middle"><textPath startOffset="21.46611528233685" xlink:href="#id21">September</textPath></text><path d="M 81.87401531095188 110.60418214915194 l -21.76872428144767 12.73528149754054 a46.22032417839406,46.22032417839406 0 0,0 -0.3958396686035327,-0.69017982763523 l 21.984715946203583 -12.358681824047004" fill="#caff1d" stroke="none" /><path d="M 81.69416730710424 110.29060199501025 l -40.24171363581307 22.621831280258565 a67.16430186647762,67.16430186647762 0 0,0 -0.5578589851539635,-1.0126760991502366 l 40.62514903041855 -21.925784662710505" fill="#38ff7e" stroke="none" /><path d="M 81.35079622478065 109.6543875284942 l -8.570104741066626 4.436602941729046 a30.65039589526831,30.65039589526831 0 0,0 -0.23852040327534751,-0.47062338409878945 l 8.645203814128239 -4.288425345927571" fill="#ff6c0a" stroke="none" /><path d="M 81.18737489456691 109.33194174019688 l -26.379153364704372 13.085293571498758 a50.446300957690774,50.446300957690774 0 0,0 -0.3791802058097749,-0.7812235334352415 l 26.600486827128865 -12.629281082098233" fill="#9aff23" stroke="none" /><path d="M 81.02952815118164 109.00673069616217 l -23.81166434150458 11.30521422242315 a47.359120382276785,47.359120382276785 0 0,0 -0.3432981069676599,-0.7394335811749924 l 24.00273706531207 -10.89366057396933" fill="#bdff1f" stroke="none" /><path d="M 80.87730276802145 108.67885076344099 l -13.799971815793025 6.263127762577017 a36.1547349527151,36.1547349527151 0 0,0 -0.25232374935704793,-0.5689234432757323 l 13.905736649881353 -6.024655982808589" fill="#ffb710" stroke="none" /><path d="M 80.58989483394504 108.01547362559985 l -42.684386093531906 17.626672706336702 a67.18069300993669,67.18069300993669 0 0,0 -0.43218742847711566,-1.0726537540471524 l 42.98147613626641 -16.889319584446746" fill="#38ff7e" stroke="none" /><path d="M 80.45479744820244 107.68017299344265 l -19.087273221478892 7.50023234221132 a41.50798586450015,41.50798586450015 0 0,0 -0.255581905468173,-0.6672437055275078 l 19.213549406540576 -7.170565069850655" fill="#fffb17" stroke="none" /><path d="M 80.32549172779594 107.34259656027581 l -30.067331557288952 11.221235225539386 a53.092998410289276,53.092998410289276 0 0,0 -0.3121760578170912,-0.8589744368307858 l 30.25603187611127 -10.702012991702484" fill="#7cff26" stroke="none" /><path d="M 80.0844068197444 106.66101706037122 l -29.289676175627694 9.796295341683651 a51.88450311879123,51.88450311879123 0 0,0 -0.27599528812097907,-0.8494261545878817 l 29.45396371476492 -9.290670287117967" fill="#8aff24" stroke="none" /><path d="M 79.97269907076064 106.31721596034903 l -28.622809816921237 9.028499229344588 a51.01298119397536,51.01298119397536 0 0,0 -0.256943222141469,-0.8397053165936625 l 28.773979811568836 -8.534466940198879" fill="#93ff23" stroke="none" /><path d="M 79.86692584326677 105.97154293290107 l -20.957504268899047 6.216071899101113 a42.859929895489515,42.859929895489515 0 0,0 -0.20370174219596407,-0.7091124877421389 l 21.061398647981115 -5.854401935854378" fill="#f2ff19" stroke="none" /><path d="M 79.76711848015287 105.62410040840567 l -56.82947004297247 15.796793223181705 a79.9841278777695,79.9841278777695 0 0,0 -0.3573078523018584,-1.3296754401988795 l 57.092965971616096 -14.816226849807286" fill="#48f8ff" stroke="none" /><path d="M 79.58551787078972 104.9243191809786 l -31.057330856348468 7.491554724627813 a52.94810154160632,52.94810154160632 0 0,0 -0.20609275500297145,-0.887842194604279 l 31.181684177281994 -6.95584387267496" fill="#7eff26" stroke="none" /><path d="M 79.50377843672027 104.57218783832718 l -31.484149502403206 7.0233162249212135 a53.25800118861858,53.25800118861858 0 0,0 -0.19189608835960484,-0.896474639318771 l 31.600379629487254 -6.480327766186279" fill="#7bff26" stroke="none" /><path d="M 79.4281124754447 104.21870165774334 l -22.647467456901605 4.644343324844449 a44.11877391062174,44.11877391062174 0 0,0 -0.14615933609492252,-0.7452633058755004 l 22.724056725972194 -4.2538162919009945" fill="#e3ff1b" stroke="none" /><path d="M 79.35854240842038 103.8639653848113 l -23.743688911530295 4.444685732818925 a45.1561171215709,45.1561171215709 0 0,0 -0.13644363245294985,-0.7652483511077129 l 23.816678986322437 -4.035318630977999" fill="#d7ff1c" stroke="none" /><path d="M 79.23777060512086 103.15116336523772 l -51.922954862687185 7.8805464512663015 a73.51758042830245,73.51758042830245 0 0,0 -0.17912365569417155,-1.252790430729196 l 52.05091256939795 -6.985610548556705" fill="#40ffc4" stroke="none" /><path d="M 79.18660465613746 102.79330883721812 l -21.512069406266235 2.8870759713451757 a42.7049380972242,42.7049380972242 0 0,0 -0.09150751248008888,-0.7294049095109322 l 21.558578427993172 -2.5163533075468347" fill="#f4ff19" stroke="none" /><path d="M 79.1416061653843 102.43462659150553 l -32.26267663029001 3.765753540758923 a53.48170566765852,53.48170566765852 0 0,0 -0.09885889170555491,-0.9153105585158079 l 32.32271782349662 -3.209846660358333" fill="#78ff26" stroke="none" /><path d="M 79.07016306316243 101.71520430193888 l -32.224208381426706 2.6407802893637498 a53.332233550225126,53.332233550225126 0 0,0 -0.06710576878639714,-0.9156048993088046 l 32.26489070887744 -2.085702253558184" fill="#7aff26" stroke="none" /><path d="M 79.04373962182676 101.35467743843564 l -25.341898997773416 1.6381786730973515 a46.394792264918024,46.394792264918024 0 0,0 -0.04465752626137688,-0.7973901306262275 l 25.366342874922324 -1.2017168261356865" fill="#c8ff1d" stroke="none" /><path d="M 79.0235259727143 100.99374915477108 l -59.32967442194333 2.810711358494151 a80.39621507600097,80.39621507600097 0 0,0 -0.05358931132857828,-1.3829020066384707 l 59.36926586612311 -1.7890321048416835" fill="#48f4ff" stroke="none" /><path d="M 79.0095281055655 100.63252640178507 l -10.594845805867656 0.3192648421034324 a31.59965507408212,31.59965507408212 0 0,0 -0.011703816016266515,-0.5438303410139242 l 10.59877168456893 -0.13684468529937935" fill="#ff790b" stroke="none" /><line stroke="#e1ed5e" stroke-width="0.3" x1="15.007084014347285" x2="10.007500721073583" y1="101.09737516637583" y2="101.16192664675087" /><path d="M 14.007167355692545 101.11028546245083 a86.0,86.0 0 0,1 10.666146001902534,-42.60595125391555" fill="none" id="id22" stroke="none" /><text fill="#e1ed5e" style="font-size:6.75px; font-family:Arial;" text-anchor="middle"><textPath startOffset="22.20632615414155" xlink:href="#id22">October</textPath></text><path d="M 79.00019446554 99.90962569577889 l -34.43652908112042 -0.14820029406413548 a55.43684797541745,55.43684797541745 0 0,0 0.012320160710359919,-0.9542100243108161 l 34.428875913292345 0.7409465764354236" fill="#63ff29" stroke="none" /><path d="M 79.00486145842228 99.54816195383935 l -32.134689026481254 -0.6915731980025416 a53.1421298659073,53.1421298659073 0 0,0 0.027553702250370883,-0.9143732357128612 l 32.11802362977524 1.2446165811403973" fill="#7cff26" stroke="none" /><path d="M 79.01574976396665 99.18683210126434 l -21.217070384887542 -0.8221899924057907 a42.232994892404705,42.232994892404705 0 0,0 0.03440257886200566,-0.7261840661759297 l 21.19977419779204 1.1872851652047294" fill="#faff18" stroke="none" /><path d="M 79.03285615573316 98.82574320788736 l -44.26303592048974 -2.4789342294407515 a65.33239745166573,65.33239745166573 0 0,0 0.07254823318274416,-1.1222890567289545 l 44.21380709630258 3.2404823504227176" fill="#35ff69" stroke="none" /><path d="M 79.08570108090925 98.10471618934814 l -36.33136620531985 -3.292400594167284 a57.48024221434844,57.48024221434844 0 0,0 0.09777902230372491,-0.9846214107398712 l 36.2693100573339 3.917297535611586" fill="#4eff2b" stroke="none" /><path d="M 79.12142395522702 97.74499172005258 l -41.75943344200692 -4.510262959298614 a63.0022946201684,63.0022946201684 0 0,0 0.12573352035691177,-1.0772080182511115 l 41.67560956864642 5.228414715874587" fill="#32ff4d" stroke="none" /><path d="M 79.26566170972629 96.67025291283419 l -16.739588553741843 -2.688226431287779 a37.95406695440475,37.95406695440475 0 0,0 0.1091416881482534,-0.6441604216077359 l 16.690835004073367 2.9759726412113428" fill="#ffce13" stroke="none" /><path d="M 79.32604984820605 96.31383870115002 l -21.13535645627599 -3.768429953371216 a42.46868316519,42.46868316519 0 0,0 0.13451303415400284,-0.7185740071375326 l 21.067357698212128 4.131682037971322" fill="#f7ff18" stroke="none" /><path d="M 79.3925641242962 95.95851677861259 l -26.35907079607515 -5.169480715419785 a47.8612014641862,47.8612014641862 0 0,0 0.16551019755635688,-0.8070865030350542 l 26.2661813026038 5.622442874618241" fill="#b7ff1f" stroke="none" /><path d="M 81.43458229118936 90.18545643968196 l -10.896137861939737 -5.760205418620189 a33.32500656272028,33.32500656272028 0 0,0 0.27245874858620694,-0.504824681817689 l 10.795371014135057 5.946911083770351" fill="#ff910d" stroke="none" /><path d="M 81.6062741919709 89.86733742301443 l -14.22967688816956 -7.838787855824931 a37.24593177968981,37.24593177968981 0 0,0 0.314182486081689,-0.5588955853154436 l 14.092636760795441 8.082566951075158" fill="#ffc512" stroke="none" /><line stroke="#e1ed5e" stroke-width="0.3" x1="26.266209847984243" x2="21.928928074336255" y1="57.711370442889674" y2="55.22380399835377" /><path d="M 25.398753493254645 57.213857153982495 a86.0,86.0 0 0,1 29.58750427330803,-30.492523968695096" fill="none" id="id23" stroke="none" /><text fill="#e1ed5e" style="font-size:6.75px; font-family:Arial;" text-anchor="middle"><textPath startOffset="21.46611528233685" xlink:href="#id23">November</textPath></text><path d="M 81.96595687620814 89.24020034530311 l -19.048238917368966 -11.364907642662681 a43.18099482844316,43.18099482844316 0 0,0 0.38633460678804943,-0.6350325137143764 l 18.8497885122947 11.691107929584133" fill="#eeff19" stroke="none" /><path d="M 82.15384107792192 88.93136811851018 l -9.68647764716554 -6.007794493643919 a32.39830881696473,32.39830881696473 0 0,0 0.2980218662732713,-0.4713990223383259 l 9.581628184646307 6.173641163696461" fill="#ff840c" stroke="none" /><path d="M 82.7489923806493 88.02491185347247 l -4.547874009655477 -3.1569861509907384 a26.53621888704259,26.53621888704259 0 0,0 0.26370352380227446,-0.37298993318333884 l 4.492857866049324 3.2348025845058634" fill="#ff3204" stroke="none" /><path d="M 82.95767976084542 87.72973835380427 l -20.166338360416653 -14.519516395397888 a45.849498168434714,45.849498168434714 0 0,0 0.4666548550515327,-0.636516697853022 l 19.913420892851484 14.86449553692241" fill="#ceff1d" stroke="none" /><path d="M 83.17141714833178 87.43820079747576 l -21.929063988493848 -16.369084726314775 a48.36477265004643,48.36477265004643 0 0,0 0.5037399725788639,-0.6628627561779196 l 21.644048075690876 16.74413225837372" fill="#b1ff20" stroke="none" /><path d="M 83.6137871275137 86.86637796730984 l -23.55004837840025 -18.875467849731812 a51.180922205447125,51.180922205447125 0 0,0 0.5569008524221672,-0.6826945963715698 l 23.221649033901688 19.278046615711464" fill="#91ff23" stroke="none" /><path d="M 83.84228863543731 86.58626213691792 l -8.503230532102815 -7.059174580698431 a32.051555331394056,32.051555331394056 0 0,0 0.356061318097353,-0.42146429310626976 l 8.380458600518338 7.204497823433816" fill="#ff800b" stroke="none" /><path d="M 84.07557802195018 86.31012108654704 l -35.19688847383658 -30.257998814732474 a67.41516401470582,67.41516401470582 0 0,0 0.7640646454159122,-0.873457971639457 l 34.670831964842826 30.859372342574876" fill="#38ff81" stroke="none" /><path d="M 84.5562425177563 85.77008943001954 l -22.583154525404193 -20.8081659954857 a51.70795728168794,51.70795728168794 0 0,0 0.608756988294713,-0.6493795107592587 l 22.221630215139026 21.19381492312301" fill="#8cff24" stroke="none" /><path d="M 84.80347519578584 85.50635884689758 l -13.970320076839304 -13.324151975295097 a40.30551395094416,40.30551395094416 0 0,0 0.48315896339357917,-0.4979377826489958 l 13.738896849742607 13.562653953494216" fill="#ffec16" stroke="none" /><path d="M 85.05521093208273 85.24692304244772 l -22.715093221639908 -22.423703464389565 a52.918614273283666,52.918614273283666 0 0,0 0.6455168800747766,-0.6427448254471466 l 22.325740541397817 22.81138414048682" fill="#7eff26" stroke="none" /><path d="M 85.57189188830299 84.74124197986013 l -21.650107277455646 -22.896539553161762 a52.51156404615358,52.51156404615358 0 0,0 0.6621261032868073,-0.6153740518955154 l 21.25277329037398 23.265818191131924" fill="#83ff25" stroke="none" /><path d="M 85.83668400450813 84.49514656593479 l -8.98963124391957 -9.841121592403315 a34.32895885274321,34.32895885274321 0 0,0 0.4397196542218063,-0.39478464718362516 l 8.818900602101792 9.994405248356218" fill="#ff9e0e" stroke="none" /><path d="M 86.10567301691215 84.25364557470407 l -19.481220179239443 -22.077945765413265 a50.44407629545433,50.44407629545433 0 0,0 0.6560280979916129,-0.5689011019700981 l 19.098298282601057 22.410011860803046" fill="#9aff23" stroke="none" /><path d="M 86.37877921826538 84.01681056812374 l -22.304195206457578 -26.17182283605565 a55.38664616344038,55.38664616344038 0 0,0 0.730951977967148,-0.6121512604939502 l 21.85038569153132 26.55187525394341" fill="#64ff29" stroke="none" /><path d="M 86.65592168130627 83.78471172551755 l -9.682698909989648 -11.766099564969341 a36.237970900165365,36.237970900165365 0 0,0 0.48506526014071494,-0.3922223730060628 l 9.478730251284432 11.931028035239539" fill="#ffb811" stroke="none" /><path d="M 86.93701828274178 83.55741782278169 l -17.131648179293833 -21.563877154254683 a48.54077281528041,48.54077281528041 0 0,0 0.6586923809408225,-0.5141198513297295 l 16.757923243193584 21.855575394807634" fill="#afff20" stroke="none" /><path d="M 87.22198572758235 83.33499621200491 l -12.283466020714608 -16.020017148265953 a41.18723574224033,41.18723574224033 0 0,0 0.5663320350777052,-0.42654954752613344 l 12.005887831878512 16.229083285297943" fill="#fff717" stroke="none" /><path d="M 87.51073957382395 83.11751280151077 l -27.23113225274963 -36.80996519969059 a66.78764136499251,66.78764136499251 0 0,0 0.9301123108036174,-0.6757661496201702 l 26.593474625592233 37.273250584127425" fill="#37ff7a" stroke="none" /><path d="M 87.80319425747018 82.90503203632743 l -3.674212744345119 -5.14975399971151 a27.32612089263656,27.32612089263656 0 0,0 0.3852577843943828,-0.26989769817132025 l 3.585023820367076 5.2122365406467726" fill="#ff3d05" stroke="none" /><path d="M 88.09926311788651 82.69761687909137 l -21.568718827702362 -31.35858226938511 a59.06008820029555,59.06008820029555 0 0,0 0.8425773891782988,-0.5689120143576162 l 21.025736744117523 31.725206196041395" fill="#3eff2d" stroke="none" /><path d="M 88.39885842347998 82.49532879139004 l -11.282205294003807 -17.02343626072844 a41.42267216647056,41.42267216647056 0 0,0 0.5977350260270476,-0.3887834880094396 l 10.987503242192473 17.215118672897415" fill="#fffa17" stroke="none" /><path d="M 88.70189139769569 82.29822771554957 l -16.701700925020674 -26.168070864304806 a52.04375535511312,52.04375535511312 0 0,0 0.7592957085443436,-0.47547090303254785 l 16.248786064104088 26.451686108660283" fill="#88ff25" stroke="none" /><path d="M 89.00827224532344 82.1063720568725 l -19.75911476563506 -32.166212263709276 a58.75033546494042,58.75033546494042 0 0,0 0.8662539277325771,-0.5219082988775315 l 19.202498771684837 32.501567172045426" fill="#41ff2d" stroke="none" /><line stroke="#e1ed5e" stroke-width="0.3" x1="56.762969772571076" x2="54.21961505331055" y1="26.818313649435495" y2="22.513508569990535" /><path d="M 56.25429882871897 25.957352633546506 a86.0,86.0 0 0,1 42.265352541879196,-11.944610805530505" fill="none" id="id24" stroke="none" /><text fill="#e1ed5e" style="font-size:6.75px; font-family:Arial;" text-anchor="middle"><textPath startOffset="22.20632615414155" xlink:href="#id24">December</textPath></text><path d="M 89.63071344664047 81.73862282372117 l -17.6309554720302 -31.049920956095836 a56.706416541519694,56.706416541519694 0 0,0 0.8529614752625027,-0.47467213750179105 l 17.093869907695655 31.34880849115781" fill="#56ff2a" stroke="none" /><path d="M 89.94658935756843 81.56283822128135 l -14.371625750977513 -26.356427526756605 a51.020074928276465,51.020074928276465 0 0,0 0.7746668389227604,-0.41380019694096243 l 13.915813865526447 26.599906450199317" fill="#93ff23" stroke="none" /><path d="M 90.26544431104013 81.39251694778311 l -9.831547639833785 -18.792881969204398 a42.20923717870987,42.20923717870987 0 0,0 0.6466847328156352,-0.33125703751946145 l 9.506602419429385 18.959331532036366" fill="#faff18" stroke="none" /><path d="M 90.58718382345135 81.22770947309562 l -6.843078138767861 -13.64737699215969 a36.2669124966187,36.2669124966187 0 0,0 0.5604597696176865,-0.2750151749013424 l 6.6071471021397485 13.763147327195862" fill="#ffb811" stroke="none" /><path d="M 91.23893434514133 80.91482961587045 l -14.205883544683207 -30.946202047581252 a55.0510579638111,55.0510579638111 0 0,0 0.8646106339898564,-0.38792558867619875 l 13.671090792226575 31.18614796677398" fill="#67ff28" stroke="none" /><path d="M 91.56875222667455 80.76684994638697 l -13.91067239176368 -31.732675477038846 a55.64779212766722,55.64779212766722 0 0,0 0.8806031031967828,-0.3770282919882497 l 13.362385530776589 31.96742329698988" fill="#61ff29" stroke="none" /><path d="M 91.90106846888425 80.62456947434976 l -17.370040058179782 -41.55511169368518 a66.03937832050327,66.03937832050327 0 0,0 1.052592626963231,-0.42937896156519123 l 16.652163561628168 41.84795154143394" fill="#36ff71" stroke="none" /><path d="M 92.57280143429618 80.3572730644239 l -9.88833749912561 -26.151706006494255 a48.95873647979682,48.95873647979682 0 0,0 0.7908413677043018,-0.2912735499103434 l 9.43671380564874 26.31804282421092" fill="#aaff21" stroke="none" /><path d="M 92.91201910852362 80.23233633223022 l -10.0622134725473 -28.06249829451585 a50.811943084891624,50.811943084891624 0 0,0 0.825858599208839,-0.2881258491052918 l 9.577672869275176 28.231544996793353" fill="#95ff23" stroke="none" /><path d="M 93.25333710446033 80.11325718540243 l -4.255401718395895 -12.54339824841159 a34.245575993635825,34.245575993635825 0 0,0 0.5598616428961024,-0.18457758130081073 l 4.038857253257383 12.614789553971635" fill="#ff9d0e" stroke="none" /><path d="M 94.63758080256005 79.69619591428918 l -8.915001997396798 -33.75499887537322 a55.912421996905856,55.912421996905856 0 0,0 0.9326487827433065,-0.23775294101265906 l 8.332644325968491 33.903454812554735" fill="#5eff29" stroke="none" /><path d="M 95.692805502759 79.44645832069477 l -4.380599508390917 -20.903823738103824 a42.357890788339276,42.357890788339276 0 0,0 0.7149075866433332,-0.1434037363792611 l 4.020125512280448 20.976131430560297" fill="#f9ff18" stroke="none" /><path d="M 96.04723909329186 79.375362276772 l -5.609819856354501 -29.27080715495083 a50.8035271456764,50.8035271456764 0 0,0 0.8602848627706728,-0.15721155986888513 l 5.105139872480935 29.363034196170453" fill="#96ff23" stroke="none" /><path d="M 97.47563105711357 79.15227682838746 l -3.801120361015259 -31.391887169161443 a52.62118112974731,52.62118112974731 0 0,0 0.9001562077357785,-0.1011430382644374 l 3.2601974497697626 31.452666160896477" fill="#82ff25" stroke="none" /><path d="M 97.83486435360386 79.11191278185805 l -2.190324122073919 -21.131092351665636 a42.24430709000321,42.24430709000321 0 0,0 0.7239364116750444,-0.06874648533973131 l 1.8262625833086379 21.165664381520546" fill="#faff18" stroke="none" /><path d="M 98.55514903715128 79.0497635885617 l -1.858470647130483 -26.94769247641712 a48.01170196321945,48.01170196321945 0 0,0 0.8249735318157504,-0.04976465634411483 l 1.3943350664751097 26.97569040214154" fill="#b5ff1f" stroke="none" /><path d="M 98.91598698831166 79.02799685794201 l -1.0035979727754765 -19.416242804714262 a40.44216277944862,40.44216277944862 0 0,0 0.6955265640857677,-0.029950836928529085 l 0.6692305763003846 19.43064136816698" fill="#ffee16" stroke="none" /><path d="M 99.63851952072746 79.00311137660856 l -0.8399345033306332 -48.78828105149245 a69.7955106329394,69.7955106329394 0 0,0 1.201414982603157,-0.010340958055511879 l 1.1951453181877974e-14 48.7955106329394" fill="#3bff9c" stroke="none" /></svg>