<?xml version="1.0" encoding="utf-8" ?>
<svg baseProfile="full" height="200mm" version="1.1" viewBox="0,0,200,200" width="200mm" xmlns="http://www.w3.org/2000/svg" xmlns:ev="http://www.w3.org/2001/xml-events" xmlns:xlink="http://www.w3.org/1999/xlink"><defs /><rect fill="#1a1a1a" height="200" width="200" x="0" y="0" /><text alignment-baseline="middle" fill="#e1ed5e" style="dominant-baseline: central; font-size:9.0px; font-family:Arial;" text-anchor="middle" x="100.0" y="100.0">2022</text><line stroke="#e1ed5e" stroke-width="0.3" x1="100.0" x2="100.0" y1="15.0" y2="10.0" /><path d="M 100.0 14.0 a86.0,86.0 0 0,1 42.46469731375804,11.215312516191453" fill="none" id="id1" stroke="none" /><text fill="#e1ed5e" style="font-size:6.75px; font-family:Arial;" text-anchor="middle"><textPath startOffset="22.20632615414155" xlink:href="#id1">January</textPath></text><line stroke="#e1ed5e" stroke-width="0.3" x1="143.23703022742887" x2="145.7803849466894" y1="26.81831364943548" y2="22.513508569990506" /><path d="M 143.74570117128098 25.957352633546492 a86.0,86.0 0 0,1 28.547481713284135,27.462654790039103" fill="none" id="id2" stroke="none" /><text fill="#e1ed5e" style="font-size:6.75px; font-family:Arial;" text-anchor="middle"><textPath startOffset="19.985693538727396" xlink:href="#id2">February</textPath></text><line stroke="#e1ed5e" stroke-width="0.3" x1="172.23445277983987" x2="176.4835382374775" y1="55.19839476539836" y2="52.563006222186495" /><path d="M 173.08426987136738 54.67131705675599 a86.0,86.0 0 0,1 12.851231095245387,41.99856678651699" fill="none" id="id3" stroke="none" /><text fill="#e1ed5e" style="font-size:6.75px; font-family:Arial;" text-anchor="middle"><textPath startOffset="22.20632615414155" xlink:href="#id3">March</textPath></text><line stroke="#e1ed5e" stroke-width="0.3" x1="184.98032266829074" x2="189.97916517819016" y1="98.17113171792111" y2="98.06355123074" /><path d="M 185.9800911702706 98.14961562048488 a86.0,86.0 0 0,1 -9.607161424134198,41.387399972396054" fill="none" id="id4" stroke="none" /><text fill="#e1ed5e" style="font-size:6.75px; font-family:Arial;" text-anchor="middle"><textPath startOffset="21.466115282336823" xlink:href="#id4">April</textPath></text><line stroke="#e1ed5e" stroke-width="0.3" x1="174.80103733775053" x2="179.2010983576182" y1="140.37084112569926" y2="142.7455964860345" /><path d="M 175.68104954172406 140.8457921977663 a86.0,86.0 0 0,1 -30.038265399797805,32.042727171017184" fill="none" id="id5" stroke="none" /><text fill="#e1ed5e" style="font-size:6.75px; font-family:Arial;" text-anchor="middle"><textPath startOffset="22.206326154141568" xlink:href="#id5">May</textPath></text><path d="M 111.7513745106137 117.40417183066458 l 18.466028128313095 27.348794499296613 a53.99925386126794,53.99925386126794 0 0,0 -0.7748257827411293,0.5135122788422606 l -17.992527646832 -27.66260479923019" fill="#80ff25" stroke="none" /><path d="M 111.45004920935366 117.60387380957326 l 12.26230037616853 18.85266905759775 a43.48971189479062,43.48971189479062 0 0,0 -0.63105269705137,0.40276768848315936 l -11.93596587707023 -19.06095117490472" fill="#fffe18" stroke="none" /><line stroke="#e1ed5e" stroke-width="0.3" x1="143.8653032363475" x2="146.44561519142675" y1="172.8068346515853" y2="177.08958963109032" /><path d="M 144.38136562736335 173.6633856474863 a86.0,86.0 0 0,1 -40.68145358897372,12.25698825130547" fill="none" id="id6" stroke="none" /><text fill="#e1ed5e" style="font-size:6.75px; font-family:Arial;" text-anchor="middle"><textPath startOffset="21.466115282336833" xlink:href="#id6">June</textPath></text><path d="M 110.8373102113329 117.98757091392108 l 17.344431911640275 28.78797348128446 a54.60917635849862,54.60917635849862 0 0,0 -0.8093395342591462,0.47817206260300704 l -16.846324506352744 -29.082264116181218" fill="#7aff26" stroke="none" /><path d="M 110.5260780823613 118.17145234162733 l 7.511403326432068 12.967138044864482 a35.9855880434138,35.9855880434138 0 0,0 -0.538672094024423,0.30587207346514445 l -7.287082465486446 -13.094513284124256" fill="#ff990e" stroke="none" /><path d="M 109.89434966115114 118.52300852407294 l 17.998769859370128 33.695126910357445 a59.20101168759363,59.20101168759363 0 0,0 -0.9029820296748333,0.47239752035955607 l -17.4160969271688 -33.999953849661715" fill="#47ff2c" stroke="none" /><path d="M 109.2508944713604 118.85261126421891 l 12.25101810775215 24.966632436613832 a48.81043293265046,48.81043293265046 0 0,0 -0.7574619886750016,0.3636277854532477 l -11.819443451076918 -25.17381449856664" fill="#bdff1f" stroke="none" /><path d="M 108.59647513512805 119.15986991738527 l 10.204818298516056 22.744553791722005 a45.92895994000279,45.92895994000279 0 0,0 -0.7241013843146274,0.31742476750540033 l -9.811796239543675 -22.916843112521857" fill="#e1ff1b" stroke="none" /><path d="M 107.93186726928326 119.44442032107085 l 6.086428226679628 14.920455004573292 a37.114111396599526,37.114111396599526 0 0,0 -0.5936117999786741,0.23621038596286703 l -5.828695350659087 -15.023012234942227" fill="#ffa90f" stroke="none" /><path d="M 107.2578585660854 119.70592522655815 l 6.960096563121636 18.897466958559825 a41.13845082467462,41.13845082467462 0 0,0 -0.6666004819824919,0.23901921632977288 l -6.633776520509409 -19.014473715929558" fill="#ffdf14" stroke="none" /><path d="M 106.57524785965236 119.94407469862006 l 6.303012563979134 19.11832923800789 a41.130536014586056,41.130536014586056 0 0,0 -0.6743031245138248,0.21589056667848755 l -5.972988094374369 -19.223992651346087" fill="#ffdf14" stroke="none" /><path d="M 106.2309692047433 120.05430185196036 l 7.1462710685775725 23.000190245859184 a45.08480727619187,45.08480727619187 0 0,0 -0.7430942890870714,0.22388821360653174 l -6.749301805050255 -23.11979382857144" fill="#ebff1a" stroke="none" /><path d="M 105.53697534728816 120.25689768951611 l 4.462749735899306 16.32686785544443 a37.925801286037064,37.925801286037064 0 0,0 -0.6312109530239026,0.16670854968068957 l -4.181048340063906 -16.401267754428705" fill="#ffb410" stroke="none" /><path d="M 103.41894727170886 120.7198165907248 l 2.6174529547141123 15.86252751111317 a37.07702830161606,37.07702830161606 0 0,0 -0.6305992758718699,0.09848663796206705 l -2.3440178152337254 -15.905232456422343" fill="#ffa90f" stroke="none" /><path d="M 101.26447882468166 120.96189622390904 l 0.9911439691660578 16.430687979170152 a37.46055508895313,37.46055508895313 0 0,0 -0.643986064331725,0.033286723655002216 l -0.7081698364208533 -16.445314509587355" fill="#ffae10" stroke="none" /><line stroke="#e1ed5e" stroke-width="0.3" x1="102.19456741930631" x2="102.32365962044197" y1="184.97166512339345" y2="189.96999836594603" /><path d="M 102.22038585953345 185.97133177190398 a86.0,86.0 0 0,1 -42.740103519485714,-10.115201625700543" fill="none" id="id7" stroke="none" /><text fill="#e1ed5e" style="font-size:6.75px; font-family:Arial;" text-anchor="middle"><textPath startOffset="22.20632615414155" xlink:href="#id7">July</textPath></text><path d="M 100.54218724476979 120.99299961872073 l 0.21003971492086415 8.132547745792266 a29.135259646712875,29.135259646712875 0 0,0 -0.5014598705602638,0.00863308643472636 l -0.07002015446793243 -8.134958309506152" fill="#ff3605" stroke="none" /><path d="M 93.42475214034765 119.94407469862007 l -1.768831253634703 5.365227806577243 a26.649286098287515,26.649286098287515 0 0,0 -0.4344217727170972,-0.14737945184535642 l 1.860922759289026 -5.333985367833764" fill="#ff1001" stroke="none" /><path d="M 92.7421414339146 119.70592522655815 l -1.7612169805968336 4.781907750250495 a26.09593239600452,26.09593239600452 0 0,0 -0.4201815171483614,-0.15887669628229417 l 1.843268718505478 -4.750882803861568" fill="#ff0801" stroke="none" /><line stroke="#e1ed5e" stroke-width="0.3" x1="58.666819895761336" x2="56.23545636021788" y1="174.27360380694188" y2="178.64263932499728" /><path d="M 58.180547188652646 175.14741091055294 a86.0,86.0 0 0,1 -31.652253787137756,-30.449443065178592" fill="none" id="id8" stroke="none" /><text fill="#e1ed5e" style="font-size:6.75px; font-family:Arial;" text-anchor="middle"><textPath startOffset="22.20632615414155" xlink:href="#id8">August</textPath></text><path d="M 88.8546689885994 117.79835938074946 l -4.791103569056331 7.651076766156977 a30.02738329146666,30.02738329146666 0 0,0 -0.4357090536105733,-0.27809013287464057 l 4.922094424713827 -7.567472204458532" fill="#ff4306" stroke="none" /><path d="M 87.07902340077011 116.55440617244103 l -2.827287892095177 3.622332396682602 a25.59508964187254,25.59508964187254 0 0,0 -0.34497611173140863,-0.27406988706931906 l 2.889221496543944 -3.573128595608152" fill="#ff0000" stroke="none" /><path d="M 85.44109423537348 115.13401014063109 l -5.737733752798958 5.964385112656046 a29.2761995136706,29.2761995136706 0 0,0 -0.3601670256482167,-0.3524992397071394 l 5.839550730822968 -5.864735770026337" fill="#ff3805" stroke="none" /><path d="M 83.50135304334701 112.99209946851258 l -6.349547482457819 5.000043499862297 a29.081904987841767,29.081904987841767 0 0,0 -0.3063199583629739,-0.3959598385300724 l 6.434674258038862 -4.890005667218972" fill="#ff3505" stroke="none" /><path d="M 83.06392112726016 112.41649034213515 l -7.139164566191856 5.233995929820225 a29.852253051994392,29.852253051994392 0 0,0 -0.30025709941419815,-0.41703084985827865 l 7.228201457981662 -5.110331474510809" fill="#ff4106" stroke="none" /><line stroke="#e1ed5e" stroke-width="0.3" x1="26.63291911575756" x2="22.317208475507996" y1="142.92168965132927" y2="145.44649492493687" /><path d="M 25.769776987707644 143.4266507060508 a86.0,86.0 0 0,1 -11.730757126820373,-40.83630448921669" fill="none" id="id9" stroke="none" /><text fill="#e1ed5e" style="font-size:6.75px; font-family:Arial;" text-anchor="middle"><textPath startOffset="21.46611528233685" xlink:href="#id9">September</textPath></text><path d="M 81.51974371655577 109.97397251340807 l -8.380040720130383 4.522788781814623 a30.522641484165597,30.522641484165597 0 0,0 -0.2455582724333723,-0.4645037103927925 l 8.456651500788642 -4.377870056335705" fill="#ff4b06" stroke="none" /><path d="M 80.73074385275274 108.34839909993369 l -9.57816858648972 4.149738495115032 a31.438469382484104,31.438469382484104 0 0,0 -0.21086083644469508,-0.4984127300711173 l 9.648180404126723 -3.9842512393777554" fill="#ff5808" stroke="none" /><path d="M 80.20201598880116 107.00284435728193 l -16.74929953972834 5.924478861275176 a38.76621751665898,38.76621751665898 0 0,0 -0.21710774426706309,-0.631016730722471 l 16.848798114938635 -5.635289427463409" fill="#ffc011" stroke="none" /><path d="M 79.67330655649465 105.27499134158121 l -5.259364853587588 1.364860651930349 a26.433577390848512,26.433577390848512 0 0,0 -0.11050328655344985,-0.4414056998145286 l 5.282079454436096 -1.2741271127184286" fill="#ff0d01" stroke="none" /><path d="M 79.04373962182676 101.35467743843564 l -8.720592546257889 0.5637260541250908 a29.738794048491364,29.738794048491364 0 0,0 -0.02862521656781748,-0.5111224711512329 l 8.729004113713238 -0.41353186663842034" fill="#ff3f05" stroke="none" /><path d="M 79.0095281055655 100.63252640178507 l -22.869607275292935 0.6891522245345185 a43.87998836788849,43.87998836788849 0 0,0 -0.016252180900382794,-0.7551749847221706 l 22.878081518878325 -0.295387424022219" fill="#fbff18" stroke="none" /><line stroke="#e1ed5e" stroke-width="0.3" x1="15.007084014347285" x2="10.007500721073583" y1="101.09737516637583" y2="101.16192664675087" /><path d="M 14.007167355692545 101.11028546245083 a86.0,86.0 0 0,1 10.666146001902534,-42.60595125391555" fill="none" id="id10" stroke="none" /><text fill="#e1ed5e" style="font-size:6.75px; font-family:Arial;" text-anchor="middle"><textPath startOffset="22.20632615414155" xlink:href="#id10">October</textPath></text><path d="M 79.00175016825051 100.2711162175752 l -16.423348613649697 0.2120479655080237 a37.42471747169934,37.42471747169934 0 0,0 -0.0027724635433479332,-0.6442228879487915 l 16.424565374482547 0.07068440064444309" fill="#ffad10" stroke="none" /><path d="M 79.00486145842228 99.54816195383935 l -36.56824040914839 -0.7869880098805403 a57.57670784459652,57.57670784459652 0 0,0 0.029852989869048795,-0.9906753979639157 l 36.549275724823694 1.4163335552694505" fill="#59ff2a" stroke="none" /><path d="M 79.01574976396665 99.18683210126434 l -31.609441156612792 -1.2249083267885152 a52.633165675322516,52.633165675322516 0 0,0 0.042874454854915735,-0.9050119785061919 l 31.58367309352438 1.7688314119177162" fill="#90ff24" stroke="none" /><path d="M 79.05617556472873 98.46500227214037 l -36.61978763956538 -2.6839076595184936 a57.718009301862864,57.718009301862864 0 0,0 0.08115019131183666,-0.9902378799015801 l 36.56816296443405 3.313859456627852" fill="#57ff2a" stroke="none" /><path d="M 79.16333360222342 97.38593545837743 l -30.33606964480355 -3.805812430683991 a51.57386677788598,51.57386677788598 0 0,0 0.11808942184471526,-0.8799033569198749 l 30.266064223901 4.327434129668525" fill="#9cff22" stroke="none" /><path d="M 79.32604984820605 96.31383870115002 l -37.45185954939084 -6.677659287523742 a59.042514602317624,59.042514602317624 0 0,0 0.18700810082450386,-0.9990047523780773 l 37.33136572465647 7.3213421173643916" fill="#49ff2c" stroke="none" /><path d="M 79.46518482838121 95.60439243477599 l -28.473914916393237 -6.095022271786839 a50.11894790612427,50.11894790612427 0 0,0 0.1878401198935455,-0.8420504257366193 l 28.364780409497655 6.5842508670734174" fill="#aeff20" stroke="none" /><path d="M 79.54389044137918 95.25157060432595 l -39.04151149667411 -9.062615758441048 a61.07955369424766,61.07955369424766 0 0,0 0.24654965371336096,-1.022107486276737 l 38.87972904269994 9.73330847637718" fill="#34ff2f" stroke="none" /><path d="M 79.91906864156998 93.8553929516997 l -28.611190488777332 -8.754799247087748 a50.92067397372443,50.92067397372443 0 0,0 0.2636830503556989,-0.8359473275188717 l 28.456251954653432 9.245996741033034" fill="#a4ff21" stroke="none" /><path d="M 80.14247586403 93.16781622104843 l -8.294486665272713 -2.853802763183102 a29.771698766575284,29.771698766575284 0 0,0 0.17089936025566874,-0.483155504998133 l 8.244134224207235 2.9961558946078464" fill="#ff4006" stroke="none" /><path d="M 80.2630227832202 92.82701384747504 l -21.957321545118866 -7.979923250647215 a44.36243019298209,44.36243019298209 0 0,0 0.2670098866337996,-0.7154537472149525 l 21.81670706998344 8.35670013489151" fill="#f5ff19" stroke="none" /><path d="M 80.38941819471856 92.48833698450439 l -26.36533734356172 -10.099013450042605 a49.233332886925545,49.233332886925545 0 0,0 0.30995067468921045,-0.7887906591478209 l 26.18759311899082 10.55135311408619" fill="#b8ff1f" stroke="none" /><path d="M 80.803312248108 91.48605970444005 l -38.94993110966239 -17.274719069760067 a63.608837726304834,63.608837726304834 0 0,0 0.45252442747448046,-0.9970775915540818 l 38.646804365224554 17.94261867015622" fill="#32ff4a" stroke="none" /><path d="M 81.43458229118936 90.18545643968196 l -27.37489028625053 -14.47164062706915 a51.964705724797255,51.964705724797255 0 0,0 0.4248532904496762,-0.787188623170949 l 27.12172889658238 14.940710233572572" fill="#98ff23" stroke="none" /><path d="M 81.6062741919709 89.86733742301443 l -26.284477969314402 -14.479488769970482 a51.00882165562446,51.00882165562446 0 0,0 0.43027728490338374,-0.7654152782134729 l 26.031343043118586 14.92978755811874" fill="#a3ff22" stroke="none" /><line stroke="#e1ed5e" stroke-width="0.3" x1="26.266209847984243" x2="21.928928074336255" y1="57.711370442889674" y2="55.22380399835377" /><path d="M 25.398753493254645 57.213857153982495 a86.0,86.0 0 0,1 29.58750427330803,-30.492523968695096" fill="none" id="id11" stroke="none" /><text fill="#e1ed5e" style="font-size:6.75px; font-family:Arial;" text-anchor="middle"><textPath startOffset="21.46611528233685" xlink:href="#id11">November</textPath></text><path d="M 81.96595687620814 89.24020034530311 l -26.059727272083297 -15.548229677555538 a51.34562293974834,51.34562293974834 0 0,0 0.4593824465491202,-0.7551039556453524 l 25.788229027247958 15.994501406407965" fill="#9fff22" stroke="none" /><path d="M 82.34701348167596 88.62581576622439 l -36.70192378338353 -23.64780839847531 a64.66062358066239,64.66062358066239 0 0,0 0.6108992989646866,-0.9304415437150418 l 36.28942784906092 24.276068006168018" fill="#34ff57" stroke="none" /><path d="M 82.7489923806493 88.02491185347247 l -33.20640166374942 -23.05080350821642 a61.422823427225644,61.422823427225644 0 0,0 0.6103889573941282,-0.8633518928817593 l 32.804700086551414 23.618981901429965" fill="#30ff2f" stroke="none" /><path d="M 83.39014120810768 87.1503855733568 l -42.94896610104877 -33.22590886147877 a75.30078000195144,75.30078000195144 0 0,0 0.8019386750251214,-1.0183806791344023 l 42.37067334542967 33.96028193456622" fill="#42ffd3" stroke="none" /><path d="M 84.07557802195018 86.31012108654704 l -20.18582436557086 -17.353313778911534 a47.619635692981134,47.619635692981134 0 0,0 0.539707654685164,-0.6169791472068213 l 19.884124847307852 17.698208482321302" fill="#ccff1d" stroke="none" /><path d="M 84.31358615837235 86.03803664274999 l -27.74076163432203 -24.691143645131742 a58.13761476665946,58.13761476665946 0 0,0 0.6717839020259261,-0.741800563405843 l 27.31163409168006 25.16499699580714" fill="#53ff2b" stroke="none" /><path d="M 85.05521093208273 85.24692304244772 l -22.40218708985233 -22.11481129991852 a52.47892732034798,52.47892732034798 0 0,0 0.6401534488140317,-0.6374044264647282 l 22.018197840870986 22.49715157703336" fill="#92ff23" stroke="none" /><path d="M 85.57189188830299 84.74124197986013 l -28.84213843147306 -30.50262776672945 a62.97950988251185,62.97950988251185 0 0,0 0.7941179856834802,-0.7380461215882181 l 28.312812561994726 30.994578474392316" fill="#31ff42" stroke="none" /><path d="M 86.37877921826538 84.01681056812374 l -40.863662345203856 -47.94956829562878 a84.0,84.0 0 0,0 1.1085698521635585,-0.9283953704247505 l 40.03223495608118 48.64586482344734" fill="#4dd2ff" stroke="none" /><path d="M 87.22198572758235 83.33499621200491 l -24.983049292242626 -32.582731730829224 a62.05833848296604,62.05833848296604 0 0,0 0.8533135203961985,-0.6426980525178829 l 24.41848961808804 33.00794637285296" fill="#30ff36" stroke="none" /><path d="M 87.80319425747018 82.90503203632743 l -29.0476585448638 -40.71301968126202 a71.01316265250406,71.01316265250406 0 0,0 1.001180292432717,-0.7013907760666119 l 28.342547112847424 41.20699530009257" fill="#3cffa3" stroke="none" /><path d="M 88.39885842347998 82.49532879139004 l -22.504848776402635 -33.95700119958244 a61.7375275258231,61.7375275258231 0 0,0 0.8908812660416482,-0.5794539569080978 l 21.9170004845767 34.339354080650075" fill="#30ff32" stroke="none" /><line stroke="#e1ed5e" stroke-width="0.3" x1="56.762969772571076" x2="54.21961505331055" y1="26.818313649435495" y2="22.513508569990535" /><path d="M 56.25429882871897 25.957352633546506 a86.0,86.0 0 0,1 42.265352541879196,-11.944610805530505" fill="none" id="id12" stroke="none" /><text fill="#e1ed5e" style="font-size:6.75px; font-family:Arial;" text-anchor="middle"><textPath startOffset="22.20632615414155" xlink:href="#id12">December</textPath></text><path d="M 89.3179101791058 81.91981866633112 l -24.563691276941363 -41.57575904694864 a69.28994377175042,69.28994377175042 0 0,0 1.032100991385608,-0.5978595117199318 l 23.844393553090434 41.99242271605862" fill="#3aff8f" stroke="none" /><path d="M 92.57280143429618 80.3572730644239 l -7.217281034292058 -19.08755761944236 a41.40646959675985,41.40646959675985 0 0,0 0.6688479197419852,-0.24634233348076381 l 6.887650788777504 19.208963220729448" fill="#ffe315" stroke="none" /><path d="M 99.27714615592234 79.0124445844662 l -0.8251199937949036 -23.95678149340369 a44.970986682380214,44.970986682380214 0 0,0 0.7738722274294296,-0.019986836489039567 l 0.412621131170595 23.967435122035088" fill="#edff1a" stroke="none" /></svg>