<?xml version="1.0" encoding="utf-8" ?>
<svg baseProfile="full" height="200mm" version="1.1" viewBox="0,0,200,200" width="200mm" xmlns="http://www.w3.org/2000/svg" xmlns:ev="http://www.w3.org/2001/xml-events" xmlns:xlink="http://www.w3.org/1999/xlink"><defs /><rect fill="#1a1a1a" height="200" width="200" x="0" y="0" /><text alignment-baseline="middle" fill="#e1ed5e" style="dominant-baseline: central; font-size:9.0px; font-family:Arial;" text-anchor="middle" x="100.0" y="100.0">2024</text><line stroke="#e1ed5e" stroke-width="0.3" x1="100.0" x2="100.0" y1="15.0" y2="10.0" /><path d="M 100.0 14.0 a86.0,86.0 0 0,1 42.35913384403234,11.155469271406648" fill="none" id="id25" stroke="none" /><text fill="#e1ed5e" style="font-size:6.75px; font-family:Arial;" text-anchor="middle"><textPath startOffset="22.145653131862478" xlink:href="#id25">January</textPath></text><path d="M 100.36049292484886 79.00309439819443 l 0.4512076539004698 -26.28058378602716 a47.28445686106776,47.28445686106776 0 0,0 0.811461366863105,0.02090036635876334 l -0.9022823348343162 26.26896570231835" fill="#beff1f" stroke="none" /><path d="M 100.72087961077811 79.0123766808444 l 0.39170432421279366 -11.404044012548612 a32.41076912910575,32.41076912910575 0 0,0 0.5558821009246457,0.023871969227173082 l -0.5874121857382757 11.395639474895606" fill="#ff840c" stroke="none" /><path d="M 101.08105385017728 79.02784411241856 l 1.290304328917382 -25.03155927342469 a46.06479293591305,46.06479293591305 0 0,0 0.7893655193255695,0.04748626947512518 l -1.7198142003754138 25.005721026124874" fill="#ccff1d" stroke="none" /><path d="M 101.44090949804482 79.04949213459386 l 1.0379432131448145 -15.09146652190298 a36.12711763342349,36.12711763342349 0 0,0 0.6183431527073711,0.047863670694962585 l -1.2968553606274191 15.071425084212965" fill="#ffb610" stroke="none" /><path d="M 101.80034050326958 79.07731436759882 l 0.7228984145663497 -8.401175358030681 a29.4322197263926,29.4322197263926 0 0,0 0.5030112623976447,0.04763568952789462 l -0.8670092403490073 8.387527912997603" fill="#ff5b08" stroke="none" /><path d="M 102.15924093988457 79.11130261209362 l 4.18325182306869 -40.46916664805407 a61.684801154770064,61.684801154770064 0 0,0 1.0523547462213254,0.11791854431604619 l -4.877342470890812 40.391392343231054" fill="#31ff3d" stroke="none" /><path d="M 102.87502721639298 79.19773525538626 l 1.787618903144501 -12.934319881793078 a34.0572666415076,34.0572666415076 0 0,0 0.5784462848881304,0.08501168398674305 l -2.009390293640313 12.901727124507453" fill="#ff9a0e" stroke="none" /><path d="M 103.23170211078529 79.25015418208739 l 3.535469018947723 -22.70024727599215 a43.973914937927496,43.973914937927496 0 0,0 0.7448814677262595,0.12256996205371426 l -3.924627989727053 22.636211315442768" fill="#e5ff1a" stroke="none" /><path d="M 103.94208987418118 79.37332000966035 l 2.9987727053186575 -15.690845954957112 a36.974832847963015,36.974832847963015 0 0,0 0.6224158742219211,0.12450060661759042 l -3.2676850650715354 15.637055951676663" fill="#ffc111" stroke="none" /><path d="M 104.29559338865022 79.4440306129975 l 3.663115108361789 -17.529331856107575 a38.90798390714757,38.90798390714757 0 0,0 0.6526121059845371,0.1422337710242121 l -3.9634896309654604 17.463866626949645" fill="#ffda14" stroke="none" /><path d="M 104.64783097203109 79.52079915486377 l 9.164215560241113 -40.37922466967142 a62.40609413792089,62.40609413792089 0 0,0 1.0426805639846806,0.2460697740284003 l -9.856028277965677 40.215958751996794" fill="#32ff46" stroke="none" /><path d="M 104.9986988182912 79.60360301121754 l 2.1767387057252074 -8.88183673326355 a30.144682342725304,30.144682342725304 0 0,0 0.5015424975214351,0.12749014160326896 l -2.328886496472037 8.843161359825011" fill="#ff6509" stroke="none" /><path d="M 105.3480935250658 79.69241777938227 l 4.649104814519532 -17.653408234285408 a39.25532793084596,39.25532793084596 0 0,0 0.650177769845527,0.17720884238351692 l -4.951463985299752 17.57099889775775" fill="#ffde14" stroke="none" /><path d="M 105.69591212413111 79.78721728523813 l 6.895540040356703 -24.46983898262509 a46.42285373996714,46.42285373996714 0 0,0 0.7651812389887054,0.22273310679874858 l -7.314581291727013 24.347862181523826" fill="#c8ff1d" stroke="none" /><path d="M 106.04205211174951 79.88797359093562 l 2.3841165570218164 -7.935948626438847 a29.286331658758428,29.286331658758428 0 0,0 0.4802391731200759,0.1487793234277418 l -2.5199963630135227 7.893852715204459" fill="#ff5908" stroke="none" /><path d="M 106.38641147887787 79.99465700312896 l 10.540215424511286 -33.01707469455259 a55.658669371180004,55.658669371180004 0 0,0 0.9077061291624371,0.29838103399033183 l -11.105444291321467 32.83127273916024" fill="#61ff29" stroke="none" /><path d="M 107.06938296918511 80.22567764915836 l 11.620976928720752 -32.50594073370826 a55.520766036709176,55.520766036709176 0 0,0 0.8947061683474102,0.3285484979889161 l -12.177272248722288 32.30166138671062" fill="#63ff29" stroke="none" /><path d="M 107.74402155503746 80.48000691201159 l 7.253617776821725 -18.28385521142637 a40.670138084025425,40.670138084025425 0 0,0 0.6467433893299566,0.2630249061185925 l -7.5664156273421215 18.156643048728483" fill="#fff016" stroke="none" /><path d="M 108.07796709384702 80.6158196554323 l 12.024244200843711 -28.853808809621615 a52.25899440838943,52.25899440838943 0 0,0 0.8251071215565028,0.35218916629022323 l -12.517786397570644 28.64314499367199" fill="#86ff25" stroke="none" /><path d="M 108.4095320186766 80.7573450057729 l 3.284430146291112 -7.515418933818942 a29.201768293281035,29.201768293281035 0 0,0 0.4576147884873412,0.20468527426526492 l -3.412958337634085 7.457929908643824" fill="#ff5808" stroke="none" /><path d="M 108.73861861582097 80.90454125486305 l 6.926069711868013 -15.134712277003654 a37.644216934459266,37.644216934459266 0 0,0 0.5852981755509697,0.2739490995952572 l -7.1848566012904875 15.013586945837863" fill="#ffca12" stroke="none" /><path d="M 109.06512990194946 81.05736502329252 l 21.817677307805408 -45.590554327575056 a71.54215752224177,71.54215752224177 0 0,0 1.1032473552027002,0.5396535658596285 l -22.597084912270176 45.20930701161821" fill="#3dffaf" stroke="none" /><path d="M 109.3889696526874 81.21577127319529 l 3.066637969524794 -6.1353301983854704 a27.859048409171045,27.859048409171045 0 0,0 0.4259420034832595,0.2174890219354847 l -3.1715071947216322 6.081783224777151" fill="#ff4406" stroke="none" /><path d="M 110.02825361518725 81.54914285379988 l 12.828489347381824 -23.602975496314496 a47.86392732300159,47.86392732300159 0 0,0 0.7185419650595372,0.3985631155663367 l -13.231775500597463 23.379279465315012" fill="#b7ff1f" stroke="none" /><path d="M 110.34350942703115 81.72400993836675 l 14.748091159495386 -26.05846394402742 a50.94244038102043,50.94244038102043 0 0,0 0.757362552025106,0.437263473285837 l -15.193246179380889 25.801453573465412" fill="#94ff23" stroke="none" /><line stroke="#e1ed5e" stroke-width="0.3" x1="143.13028292997686" x2="145.6673583964461" y1="26.7553504044142" y2="22.446841604673864" /><path d="M 143.63769802327073 25.89364864446614 a86.0,86.0 0 0,1 29.32050498858742,28.57503671076993" fill="none" id="id26" stroke="none" /><text fill="#e1ed5e" style="font-size:6.75px; font-family:Arial;" text-anchor="middle"><textPath startOffset="20.669276256404974" xlink:href="#id26">February</textPath></text><path d="M 110.96478420261332 82.08984904055464 l 18.02780458727004 -29.44706395119324 a55.52725464879099,55.52725464879099 0 0,0 0.8086774429251655,0.5046745339103852 l -18.53064615898492 29.13325362044131" fill="#63ff29" stroke="none" /><path d="M 111.27062007382361 82.28071324371311 l 14.143590770929857 -22.23607387988698 a47.35306702240413,47.35306702240413 0 0,0 0.6821420538559115,0.4421562379029153 l -14.523218457042775 21.99000380028017" fill="#bdff1f" stroke="none" /><path d="M 112.16784306229584 82.88440491214696 l 20.071910298095492 -28.23365550846364 a55.641317619071465,55.641317619071465 0 0,0 0.773729588218209,0.5601205535455931 l -20.55362089668767 27.884934183544974" fill="#61ff29" stroke="none" /><path d="M 112.45986205192187 83.09580414077388 l 13.986393902275077 -18.975229493160864 a44.57283497392113,44.57283497392113 0 0,0 0.6120211305001818,0.45927206615512345 l -14.310068021686025 18.732338399741725" fill="#deff1b" stroke="none" /><path d="M 112.7482090630111 83.31218511350987 l 13.999087535513336 -18.325254960733957 a44.06055986317048,44.06055986317048 0 0,0 0.5971046271839346,0.4643121696532771 l -14.311602107332497 18.082241739459892" fill="#e4ff1a" stroke="none" /><path d="M 113.31354834802062 83.75963576809568 l 12.530313944643897 -15.284945611917314 a40.764572596203735,40.764572596203735 0 0,0 0.5373657119785696,0.4482895890063483 l -12.79085399078436 15.067593838999095" fill="#fff116" stroke="none" /><path d="M 113.59037401385872 83.9905735841838 l 13.709957523637055 -16.15029548964661 a42.184781795025216,42.184781795025216 0 0,0 0.5480416245432859,0.4733853024139597 l -13.9851786279432 15.912566054767929" fill="#fbff18" stroke="none" /><path d="M 114.13192950727249 84.46653392183569 l 23.14963452229202 -25.445503559076784 a55.40027950308956,55.40027950308956 0 0,0 0.6979649817810794,0.6460259671244268 l -23.583029275387062 25.044359845819983" fill="#64ff29" stroke="none" /><path d="M 114.39649973595853 84.71141617570332 l 11.40507409687968 -12.111793460249057 a37.63644360970961,37.63644360970961 0 0,0 0.4665619907517173,0.4469558330809352 l -11.61130857349671 11.91422549686254" fill="#ffc912" stroke="none" /><path d="M 114.65682725009322 84.96080404539774 l 11.829548246904107 -12.1381586276444 a37.94913291574794,37.94913291574794 0 0,0 0.4626326024044508,0.4586785013574469 l -12.03617276943852 11.933300116058293" fill="#ffce13" stroke="none" /><path d="M 114.91283532996326 85.21462403516908 l 4.536722112314459 -4.497946942641956 a27.3885345912177,27.3885345912177 0 0,0 0.32815794287085376,0.3367189585223863 l -4.613266856336124 4.419405292051828" fill="#ff3e05" stroke="none" /><path d="M 115.16444852881244 85.47280134310134 l 24.972524788701296 -23.923113846211205 a55.58239972039365,55.58239972039365 0 0,0 0.6541364684683155,0.694670261114097 l -25.379517090905875 23.490902125152612" fill="#62ff29" stroke="none" /><path d="M 115.41159269507618 85.73525988315684 l 17.956984023574595 -16.620716330015235 a45.4683772765124,45.4683772765124 0 0,0 0.5252729936319447,0.5773670342863458 l -18.239654718048417 16.310011720171214" fill="#d3ff1c" stroke="none" /><path d="M 115.6541949942343 86.00192230759917 l 17.027203753129047 -15.225830590996656 a43.84188225248308,43.84188225248308 0 0,0 0.49685156720577217,0.565325877695961 l -17.28606638429341 14.931292435489398" fill="#e7ff1a" stroke="none" /><path d="M 115.8921839302757 86.27271002978787 l 16.25195521240943 -14.038051834942122 a42.47540331511108,42.47540331511108 0 0,0 0.47189250050683074,0.5558881790402354 l -16.490542276423376 13.756996873452335" fill="#f7ff18" stroke="none" /><path d="M 116.35404254752997 86.82634096563983 l 20.356661088223618 -16.39788520024295 a47.139707146430396,47.139707146430396 0 0,0 0.502225473256308,0.6345454790475518 l -20.635152992121487 16.04601977728072" fill="#c0ff1e" stroke="none" /><path d="M 116.57777611688842 87.10902102172516 l 31.067459661214443 -24.158244542410177 a60.354895872967035,60.354895872967035 0 0,0 0.6289785532755022,0.8233531167204409 l -31.47759019184425 23.621370512448856" fill="#31ff2f" stroke="none" /><path d="M 116.7966241395341 87.39550010848427 l 16.94660506947165 -12.717048377415212 a42.18751384221757,42.18751384221757 0 0,0 0.42970590522046354,0.5829785878401685 l -17.16241299427594 12.424263480306168" fill="#fbff18" stroke="none" /><path d="M 117.21940702142032 87.97951657250589 l 28.182482266843177 -19.673561384130192 a55.370064362117056,55.370064362117056 0 0,0 0.53738035191407,0.7840539932490187 l -28.516052355572572 19.186872655811126" fill="#64ff29" stroke="none" /><path d="M 117.42321728460499 88.27688183743584 l 17.69853791876614 -11.908366172397287 a42.331840740027545,42.331840740027545 0 0,0 0.40049058145445293,0.6063937848355561 l -17.900352939141317 11.602792509222672" fill="#f9ff18" stroke="none" /><path d="M 117.62189284568427 88.57770195909679 l 26.0055899554575 -16.85650921850332 a51.99084722889775,51.99084722889775 0 0,0 0.47901472077013524,0.753090703280998 l -26.29112236785352 16.40760484054365" fill="#89ff24" stroke="none" /><path d="M 117.81537515405839 88.88188828441811 l 13.899625394653597 -8.674394258113265 a37.38428215873029,37.38428215873029 0 0,0 0.3350914061005423,0.5473466287684081 l -14.046484765209543 8.434510513220301" fill="#ffc612" stroke="none" /><line stroke="#e1ed5e" stroke-width="0.3" x1="172.87174338648825" x2="177.1583165268699" y1="56.24261187166439" y2="53.66864786411523" /><path d="M 173.72905801456457 55.72781907015455 a86.0,86.0 0 0,1 12.242430191666344,42.057860355516425" fill="none" id="id27" stroke="none" /><text fill="#e1ed5e" style="font-size:6.75px; font-family:Arial;" text-anchor="middle"><textPath startOffset="22.145653131862474" xlink:href="#id27">March</textPath></text><path d="M 118.00360718960297 89.18935116829356 l 17.628065957377256 -10.585147111930915 a41.56195634609855,41.56195634609855 0 0,0 0.3620368797209697,0.614817770588082 l -17.807176547227993 10.280978173049276" fill="#fffb17" stroke="none" /><path d="M 118.18653347947321 89.5 l 24.398393511316755 -14.086419061553151 a49.172838123106295,49.172838123106295 0 0,0 0.4157835903746944,0.7346497645779329 l -24.636610466712824 13.6655125268761" fill="#a8ff21" stroke="none" /><path d="M 118.36410011445183 89.81374322990088 l 9.373753496066044 -5.199463051031902 a31.71921968354303,31.71921968354303 0 0,0 0.2600291035759303,0.4784242628914037 l -9.461627949257316 5.037783954665895" fill="#ff7b0b" stroke="none" /><path d="M 118.53625476483649 90.13048839642627 l 35.61146326260301 -18.96109836369095 a61.344758852436925,61.344758852436925 0 0,0 0.4869369672085273,0.9337658396680978 l -35.93170829878648 18.346986280918355" fill="#30ff39" stroke="none" /><path d="M 118.8641267826498 90.77261029715802 l 23.92357991763871 -11.702221763594812 a47.63230501252188,47.63230501252188 0 0,0 0.3529797452918314,0.7375919089473247 l -24.120938920890453 11.289817352582384" fill="#baff1f" stroke="none" /><path d="M 119.0197475246899 91.09779779509293 l 20.842286479235394 -9.755242461021014 a44.012293696105694,44.012293696105694 0 0,0 0.31440608532275915,0.6870340376946021 l -21.006677029413204 9.396019441111727" fill="#e5ff1a" stroke="none" /><path d="M 119.16976305983485 91.42560881287824 l 11.356220765442162 -5.07949310308561 a33.44045820127836,33.44045820127836 0 0,0 0.22988900638534876,0.5260310356170246 l -11.441743653844481 4.883799997692735" fill="#ff920d" stroke="none" /><path d="M 119.31412917781788 91.75594674310238 l 27.006082486692012 -11.527290732639324 a50.36336021154264,50.36336021154264 0 0,0 0.332576021125741,0.7980613806523829 l -27.199984352354235 11.061996842545662" fill="#9bff22" stroke="none" /><path d="M 119.4528033332814 92.08871423366111 l 21.38074092526128 -8.695361201046284 a44.081277887712446,44.081277887712446 0 0,0 0.27905826150376056,0.7034091133380285 l -21.526857861731163 8.32705107049469" fill="#e4ff1a" stroke="none" /><path d="M 119.58574465831526 92.42381321644754 l 21.975634247407395 -8.500647417289052 a44.56245969946448,44.56245969946448 0 0,0 0.2698560727394022,0.7158252937713757 l -22.11832100396124 8.12215384332352" fill="#deff1b" stroke="none" /><path d="M 119.71291397450082 92.76114493625339 l 22.100750437186917 -8.115701687826279 a44.54374192375978,44.54374192375978 0 0,0 0.2574200450225697,0.7200496807193476 l -22.23681065225343 7.735117050726014" fill="#deff1b" stroke="none" /><path d="M 119.83427380445688 93.10060997987247 l 22.341408569409477 -7.771501635957987 a44.654487408163824,44.654487408163824 0 0,0 0.24563068037410382,0.7261634608144085 l -22.471524671355944 7.386836500669418" fill="#ddff1b" stroke="none" /><path d="M 119.94978838288452 93.4421083053983 l 12.425544883812341 -4.084523405990714 a34.079659671173445,34.079659671173445 0 0,0 0.17792062734587843,0.5573338310637983 l -12.493830226935478 3.8706205412355286" fill="#ff9b0e" stroke="none" /><path d="M 120.05942366710727 93.78553927170692 l 17.21454045054071 -5.333108635664262 a39.02172163371466,39.02172163371466 0 0,0 0.19273697941156914,0.6415587201558112 l -17.303553749955906 5.0368123119177275" fill="#ffdb14" stroke="none" /><path d="M 120.16314734710363 94.1308016681162 l 31.55134310885974 -9.184136144787614 a53.86085222113062,53.86085222113062 0 0,0 0.2507902546823928,0.8899661396458628 l -31.704351855616714 8.641162081238738" fill="#74ff27" stroke="none" /><path d="M 120.35273937422433 94.82641323984039 l 23.341121258574443 -5.9332217491849555 a45.08341881736223,45.08341881736223 0 0,0 0.18422474675332545,0.751699833602533 l -23.43953353184406 5.531666090974327" fill="#d8ff1c" stroke="none" /><path d="M 120.43855184770803 95.1765574152323 l 17.505490838304908 -4.13124817285964 a38.986367642070846,38.986367642070846 0 0,0 0.1481280326265193,0.6526794432086966 l -17.573829732489095 3.8301343957119163" fill="#ffdb14" stroke="none" /><path d="M 120.592083275326 95.88100663000786 l 33.97882066221402 -6.796715764815963 a55.65192056412747,55.65192056412747 0 0,0 0.17934151458063732,0.9383905867965369 l -34.09048846907682 6.212422612986113" fill="#61ff29" stroke="none" /><path d="M 120.65975698304385 96.23510406497455 l 19.88504636039656 -3.623717852610463 a41.21253076263456,41.21253076263456 0 0,0 0.12086101088684556,0.6970941932315331 l -19.94432218877564 3.2818306264583375" fill="#fff717" stroke="none" /><path d="M 120.7213421655516 96.59031103205396 l 49.19622793993345 -8.095220586155722 a70.85781222493029,70.85781222493029 0 0,0 0.1871945567898154,1.201923338904903 l -49.32794398886153 7.249509065319379" fill="#3cffa7" stroke="none" /><path d="M 120.77682067341334 96.94652285012252 l 8.1679877767845 -1.2004129230804323 a29.255726225329877,29.255726225329877 0 0,0 0.06875859577997634,0.49750294700774644 l -8.187390889119689 1.0600216678726002" fill="#ff5808" stroke="none" /><path d="M 120.82617615685814 97.30363454192243 l 20.145990167938454 -2.6083017640140116 a41.31413689869278,41.31413689869278 0 0,0 0.08502432403543578,0.704123372785423 l -20.187796578233556 2.262084714305175" fill="#fff817" stroke="none" /><path d="M 120.86939407059847 97.66154086499901 l 30.858741167613864 -3.457786313005694 a52.051862949526814,52.051862949526814 0 0,0 0.09187800125767465,0.8888363171642357 l -30.913551561353206 2.9275454735585265" fill="#88ff25" stroke="none" /><path d="M 120.93736805541906 98.37931529534042 l 31.32169228459977 -2.424497075054581 a52.415387847965604,52.415387847965604 0 0,0 0.061740431874066685,0.897692329286754 l -31.358696677638903 1.886461321613493" fill="#84ff25" stroke="none" /><path d="M 120.96210409425399 98.7389718711861 l 19.078212731909325 -1.1476979025701926 a40.11270288367271,40.11270288367271 0 0,0 0.03544895276770092,0.6877002134295587 l -19.0951032741336 0.8200258957639033" fill="#ffe915" stroke="none" /><path d="M 120.98066250479742 99.09900007780936 l 40.657832941248834 -1.7460222863853279 a61.69530652671206,61.69530652671206 0 0,0 0.03635708233778381,1.0584967832081293 l -40.68181471058347 1.0478192386130785" fill="#31ff3d" stroke="none" /><path d="M 120.99303781780057 99.45929381324524 l 6.735384929317773 -0.17347962372405515 a27.737618668782645,27.737618668782645 0 0,0 0.008174102401041883,0.4761004853731764 l -6.737370463317481 0.0578322223818124" fill="#ff4306" stroke="none" /><line stroke="#e1ed5e" stroke-width="0.3" x1="184.99686870605535" x2="189.99668451229388" y1="99.2704041080226" y2="99.22748670261217" /><path d="M 185.99683186730306 99.26182062694052 a86.0,86.0 0 0,1 -10.086455211305974,41.156179273409016" fill="none" id="id28" stroke="none" /><text fill="#e1ed5e" style="font-size:6.75px; font-family:Arial;" text-anchor="middle"><textPath startOffset="21.40746469413373" xlink:href="#id28">April</textPath></text><path d="M 120.99922638620191 100.18025310272382 l 19.635703191679756 0.16854889601028608 a40.636426573134145,40.636426573134145 0 0,0 -0.011975300258739588,0.6975012039182189 l -19.629916459822347 -0.505597015897576" fill="#fff016" stroke="none" /><path d="M 120.99303781780057 100.54070618675476 l 25.816114366601038 0.6649315300215065 a46.824676085655774,46.824676085655774 0 0,0 -0.027593810611014253,0.8033636884512607 l -25.80089586899318 -1.1080014830368778" fill="#c3ff1e" stroke="none" /><path d="M 120.98066250479742 100.90099992219065 l 18.310980381204452 0.7863522848683713 a39.32785727892849,39.32785727892849 0 0,0 -0.034755358151222465,0.6742446631651674 l -18.294783433596656 -1.1005687414102692" fill="#ffdf14" stroke="none" /><path d="M 120.96210409425399 101.26102812881392 l 7.26445538650892 0.43701159681830637 a28.277588281727137,28.277588281727137 0 0,0 -0.033308358185479746,0.48429621783710686 l -7.255883067158374 -0.5616512388097568" fill="#ff4a06" stroke="none" /><path d="M 120.93736805541906 101.62068470465957 l 34.416495456613546 2.664054413471634 a55.51944879967,55.51944879967 0 0,0 -0.08170976343886013,0.9495913081022043 l -34.365692070476946 -3.254466768949496" fill="#63ff29" stroke="none" /><path d="M 120.9064616781168 101.97986365728391 l 16.303904478045176 1.543996705176451 a37.37685033987968,37.37685033987968 0 0,0 -0.06597478184143649,0.6382461668185015 l -16.27499730372207 -1.823647394277884" fill="#ffc612" stroke="none" /><path d="M 120.86939407059847 102.33845913500097 l 16.196858647424136 1.8148917948580598 a37.29822267217138,37.29822267217138 0 0,0 -0.07675958905303619,0.6356795111375626 l -16.163316972111435 -2.092664982919031" fill="#ffc512" stroke="none" /><path d="M 120.82617615685814 102.69636545807757 l 5.298844857518728 0.6860415533756307 a26.34307119894642,26.34307119894642 0 0,0 -0.061913095925929466,0.4479723201457795 l -5.286287245037588 -0.7769021817214952" fill="#ff2f04" stroke="none" /><path d="M 120.77682067341334 103.0534771498775 l 17.724438870198053 2.604882139345084 a38.9148302873141,38.9148302873141 0 0,0 -0.10280651038251146,0.6600915450701528 l -17.677110867677275 -2.908761866346687" fill="#ffda14" stroke="none" /><path d="M 120.7213421655516 103.40968896794604 l 14.965622983689196 2.462587566878601 a36.16687867738354,36.16687867738354 0 0,0 -0.10606399162299449,0.6117489182724981 l -14.921144174573966 -2.719129518071687" fill="#ffb610" stroke="none" /><path d="M 120.65975698304385 103.76489593502545 l 9.731484263215968 1.7734006055548466 a30.89175089016107,30.89175089016107 0 0,0 -0.09955044383967178,0.5208899881826599 l -9.699607527094138 -1.940193158770821" fill="#ff6f0a" stroke="none" /><path d="M 120.51834098615036 104.47187691870673 l 61.555022958451104 13.415630756120176 a84.0,84.0 0 0,0 -0.3191565537693437,1.4062626642439322 l -61.315655543124095 -14.470327754303124" fill="#4dd2ff" stroke="none" /><path d="M 120.35273937422433 105.17358676015961 l 16.1108625781332 4.095318266323423 a37.62322245276093,37.62322245276093 0 0,0 -0.16448607558033856,0.6245804207310162 l -16.038187021748133 -4.3712791914272415" fill="#ffc912" stroke="none" /><path d="M 120.26092885502905 105.52220625578681 l 23.11483007627472 6.300049724372333 a44.95800484148499,44.95800484148499 0 0,0 -0.2093362622247023,0.7428605446250225 l -23.00327532197544 -6.695918192900364" fill="#d9ff1c" stroke="none" /><path d="M 120.16314734710363 105.8691983318838 l 23.524006741415857 6.847495519878446 a45.50034873353712,45.50034873353712 0 0,0 -0.22473636246479328,0.7480742591047056 l -23.402994058947435 -7.250307382573876" fill="#d3ff1c" stroke="none" /><path d="M 120.05942366710727 106.21446072829308 l 26.57046279123972 8.231597292572834 a48.816338488876404,48.816338488876404 0 0,0 -0.25485681642579516,0.7983353475658729 l -26.42524125903667 -8.68650167383009" fill="#acff20" stroke="none" /><path d="M 119.83427380445688 106.89939002012753 l 33.04163725934079 11.493596619834104 a55.983604103026885,55.983604103026885 0 0,0 -0.32353146067954974,0.9049750766089164 l -32.8394656286173 -12.059106652823942" fill="#5eff2a" stroke="none" /><path d="M 119.71291397450082 107.23885506374661 l 5.1762340159914455 1.9007848289839622 a26.514198178738457,26.514198178738457 0 0,0 -0.1605615453142178,0.42590857480508304 l -5.142841786862787 -1.989361683983204" fill="#ff3104" stroke="none" /><path d="M 119.58574465831526 107.57618678355244 l 23.652816359153775 9.149417488087904 a46.36074845289826,46.36074845289826 0 0,0 -0.29348853947097575,0.7397828403706683 l -23.492269144716676 -9.554101345672137" fill="#c9ff1d" stroke="none" /><path d="M 119.4528033332814 107.91128576633889 l 21.15423783395978 8.603244365670708 a43.836759663997434,43.836759663997434 0 0,0 -0.2894774106981857,0.6946404051244875 l -21.00343457872511 -8.965117280236473" fill="#e7ff1a" stroke="none" /><path d="M 119.31412917781788 108.2440532568976 l 21.363291926846593 9.118718983708908 a44.228027851187065,44.228027851187065 0 0,0 -0.30404898509149525,0.6957235799170205 l -21.20360905973813 -9.484104633401772" fill="#e2ff1b" stroke="none" /><path d="M 119.16976305983485 108.57439118712176 l 6.600013851231084 2.9521022468686122 a28.230151486131454,28.230151486131454 0 0,0 -0.20166482297213542,0.44067403290010787 l -6.548364563403893 -3.064965261983409" fill="#ff4a06" stroke="none" /><path d="M 118.8641267826498 109.22738970284198 l 37.51227638622672 18.34913414464492 a62.75956900561639,62.75956900561639 0 0,0 -0.48169489424378686,0.9637124631049728 l -37.19176157877121 -18.99037846391364" fill="#32ff4a" stroke="none" /><line stroke="#e1ed5e" stroke-width="0.3" x1="174.33088141563837" x2="178.70328620479359" y1="141.23008692659167" y2="143.65538615756765" /><path d="M 175.20536237346943 141.71514677278685 a86.0,86.0 0 0,1 -30.301960400862466,31.631185727798858" fill="none" id="id29" stroke="none" /><text fill="#e1ed5e" style="font-size:6.75px; font-family:Arial;" text-anchor="middle"><textPath startOffset="22.145653131862474" xlink:href="#id29">May</textPath></text><path d="M 118.36410011445183 110.18625677009912 l 18.5091350644964 10.266705212036648 a42.16585261090681,42.16585261090681 0 0,0 -0.3565356456725358,0.6299643233176305 l -18.330166053802486 -10.5829263054534" fill="#fbff18" stroke="none" /><path d="M 118.18653347947321 110.5 l 29.897113774355205 17.261106685616838 a55.52221337123369,55.52221337123369 0 0,0 -0.4836415474944434,0.8213290817871434 l -29.596398516730996 -17.77178693569753" fill="#63ff29" stroke="none" /><path d="M 118.00360718960297 110.81064883170644 l 19.050144484333007 11.439064407733014 a43.22071554649462,43.22071554649462 0 0,0 -0.3874058697624104,0.6327983735754965 l -18.850970650115194 -11.764399897433067" fill="#eeff19" stroke="none" /><path d="M 117.81537515405839 111.11811171558189 l 25.011125341412086 15.608792027873426 a50.48204164255303,50.48204164255303 0 0,0 -0.46511342611614814,0.7312355591412603 l -24.73949422367005 -16.035841261693356" fill="#99ff23" stroke="none" /><path d="M 117.62189284568427 111.42229804090321 l 16.987462163441972 11.011067737647805 a41.24394930534655,41.24394930534655 0 0,0 -0.3901983223507062,0.5908099927529499 l -16.79593940217054 -11.301057608739816" fill="#fff717" stroke="none" /><path d="M 117.21940702142032 112.02048342749411 l 29.496387146569056 20.590769033174187 a56.97244256479964,56.97244256479964 0 0,0 -0.5666991929359833,0.797133384548711 l -29.13857285510311 -21.0940796444324" fill="#54ff2b" stroke="none" /><path d="M 116.79662413953412 112.60449989151573 l 27.514589519511976 20.6474609262411 a55.4001494056042,55.4001494056042 0 0,0 -0.5773434834139327,0.7557611527636403 l -27.156094058743736 -21.11674299224562" fill="#64ff29" stroke="none" /><path d="M 116.57777611688842 112.89097897827486 l 17.021698142183574 13.236175430182735 a42.562340959696115,42.562340959696115 0 0,0 -0.4534583077696987,0.5729297585528232 l -16.791973403772314 -13.52642513265024" fill="#f6ff19" stroke="none" /><path d="M 116.35404254752997 113.17365903436017 l 26.976015593923663 21.729968630514957 a55.63952877864791,55.63952877864791 0 0,0 -0.6055519656392333,0.7386749367075275 l -26.5990168090458 -22.189845848920978" fill="#61ff29" stroke="none" /><path d="M 116.1254893667686 113.45245675266167 l 10.755385034828745 8.972524724578458 a35.00658799210535,35.00658799210535 0 0,0 -0.38891558531546394,0.458141581587287 l -10.599774886006166 -9.155833088615301" fill="#ffa70f" stroke="none" /><path d="M 115.89218393027572 113.72728997021213 l 18.721820487171886 16.17146263378338 a45.739093881339734,45.739093881339734 0 0,0 -0.518352299443734,0.5897897641477812 l -18.441457123769567 -16.490464675742455" fill="#d0ff1d" stroke="none" /><path d="M 115.6541949942343 113.99807769240083 l 7.325510972574853 6.550517083018695 a30.827124964313537,30.827124964313537 0 0,0 -0.35613006632272126,0.39144932769383184 l -7.211983205410252 -6.675303986270199" fill="#ff6e0a" stroke="none" /><path d="M 115.41159269507618 114.26474011684316 l 17.52848486007767 16.22410390140354 a44.88449976226234,44.88449976226234 0 0,0 -0.5282353462813982,0.5609676323202352 l -17.24739368006001 -16.522612993668275" fill="#daff1b" stroke="none" /><path d="M 115.16444852881244 114.52719865689866 l 7.139768108921849 6.839736340258458 a30.88727878910217,30.88727878910217 0 0,0 -0.3700784295177534,0.37973307081541313 l -7.021302878253289 -6.961292103141608" fill="#ff6f0a" stroke="none" /><path d="M 114.91283532996324 114.78537596483092 l 24.602668751641595 24.392390795085298 a55.645057921775276,55.645057921775276 0 0,0 -0.6783611634671703,0.6725632396443106 l -24.18031566804446 -24.811134044958273" fill="#61ff29" stroke="none" /><path d="M 114.65682725009322 115.03919595460226 l 13.082156349510395 13.423444889669401 a39.74384398833459,39.74384398833459 0 0,0 -0.49268648131619064,0.4719825040818161 l -12.849797382328891 -13.646039524056798" fill="#ffe415" stroke="none" /><path d="M 114.13192950727249 115.5334660781643 l 6.5905446319889505 7.244163044044697 a30.79352728872194,30.79352728872194 0 0,0 -0.3940617966642034,0.3523724884827519 l -6.465217808501369 -7.356231062410836" fill="#ff6e0a" stroke="none" /><path d="M 113.86319453409587 115.77377054828091 l 7.406894361180851 8.427686118179556 a32.21998116684021,32.21998116684021 0 0,0 -0.4185843820937306,0.3615632197067709 l -7.261130499324264 -8.553593470351045" fill="#ff810b" stroke="none" /><path d="M 113.59037401385872 116.0094264158162 l 13.855634149636082 16.321902188774796 a42.40988296905177,42.40988296905177 0 0,0 -0.559054480524946,0.46638313111552315 l -13.573405334949241 -16.557347503802188" fill="#f8ff18" stroke="none" /><path d="M 113.03279911837588 116.46651593811092 l 15.512878131860202 19.60001475385905 a45.99619903676235,45.99619903676235 0 0,0 -0.623336230021007,0.4847100226798188 l -15.174131957203963 -19.863425828159663" fill="#cdff1d" stroke="none" /><path d="M 112.7482090630111 116.68781488649013 l 18.263935978799214 23.90807847646942 a51.08600295610397,51.08600295610397 0 0,0 -0.7014522028994445,0.526382810135009 l -17.850830786989004 -24.218080313868445" fill="#93ff23" stroke="none" /><path d="M 112.16784306229584 117.11559508785304 l 14.49620586412701 20.390728957490744 a46.018429444571495,46.018429444571495 0 0,0 -0.6477749352518756,0.4521972135425499 l -14.144035837701377 -20.636570986838418" fill="#cdff1d" stroke="none" /><path d="M 111.5731344415666 117.5232005979908 l 16.27276712703723 24.639043475318356 a50.52770585991082,50.52770585991082 0 0,0 -0.7278741424626052,0.47179922521835815 l -15.847407352317616 -24.91475654224061" fill="#99ff23" stroke="none" /><path d="M 111.27062007382361 117.71928675628689 l 6.364725817868182 10.00640613854783 a32.859085063621286,32.859085063621286 0 0,0 -0.4785469956002611,0.2986487184373276 l -6.192014693478206 -10.114190653826705" fill="#ff8a0c" stroke="none" /><path d="M 110.96478420261333 117.91015095944535 l 10.40464596432476 16.995207243223838 a40.9272107150767,40.9272107150767 0 0,0 -0.6023457236905572,0.36169130027782737 l -10.111367484076766 -17.171312544037587" fill="#fff316" stroke="none" /><line stroke="#e1ed5e" stroke-width="0.3" x1="143.1302829299769" x2="145.66735839644613" y1="173.24464959558577" y2="177.55315839532614" /><path d="M 143.63769802327073 174.10635135553383 a86.0,86.0 0 0,1 -40.68552437913181,11.842963189579606" fill="none" id="id30" stroke="none" /><text fill="#e1ed5e" style="font-size:6.75px; font-family:Arial;" text-anchor="middle"><textPath startOffset="21.407464694133747" xlink:href="#id30">June</textPath></text><path d="M 110.34350942703117 118.27599006163325 l 4.941384415705114 8.730952788241128 a31.032288698710225,31.032288698710225 0 0,0 -0.4658623508136356,0.2584059929609743 l -4.790777876735384 -8.814491696635246" fill="#ff710a" stroke="none" /><path d="M 110.02825361518725 118.45085714620011 l 12.742048480826243 23.443934037889925 a47.68291293432297,47.68291293432297 0 0,0 -0.722535056741789,0.38470922076608716 l -12.3377246082979 -23.659213726378578" fill="#b9ff1f" stroke="none" /><path d="M 109.71004243097381 118.62028667847754 l 12.045266707758746 23.098387140075126 a47.0504114849234,47.0504114849234 0 0,0 -0.7193622064277871,0.3673114682606787 l -11.646977279617376 -23.301756560008638" fill="#c1ff1e" stroke="none" /><path d="M 109.3889696526874 118.78422872680471 l 10.9195124333286 21.846339558049657 a45.42331476002435,45.42331476002435 0 0,0 -0.7004702347417546,0.34263509282328064 l -10.542881949324777 -22.03056840097016" fill="#d4ff1c" stroke="none" /><path d="M 109.06512990194946 118.94263497670748 l 7.267249684899688 15.185756801570292 a37.83508620765314,37.83508620765314 0 0,0 -0.5882658408782506,0.27533811681463255 l -7.005495130149931 -15.30827114995546" fill="#ffcc13" stroke="none" /><path d="M 108.4095320186766 119.2426549942271 l 16.286370198745526 37.2664022381641 a61.66977489521215,61.66977489521215 0 0,0 -0.9736921084470214,0.4156112617843142 l -15.644243015128076 -37.54048814960781" fill="#31ff3d" stroke="none" /><path d="M 108.07796709384702 119.3841803445677 l 5.228830876731083 12.547290615110636 a34.59320323240625,34.59320323240625 0 0,0 -0.5501069472664042,0.22372370641443912 l -5.012669468274237 -12.635201578104367" fill="#ffa10e" stroke="none" /><path d="M 107.407793817531 119.65005319985036 l 7.588635696040382 20.129757767904167 a42.51265998247814,42.51265998247814 0 0,0 -0.6850831109576225,0.25157200773349725 l -7.241963433428633 -20.257060624646385" fill="#f7ff18" stroke="none" /><path d="M 107.06938296918513 119.77432235084164 l 8.770136491723264 24.531632648019567 a47.0521840631613,47.0521840631613 0 0,0 -0.7629046231515064,0.2653778300720006 l -8.347726096526737 -24.678568910660157" fill="#c1ff1e" stroke="none" /><path d="M 106.72888874123015 119.89276391827305 l 7.30546532797518 21.59731014603931 a43.79942168570203,43.79942168570203 0 0,0 -0.7143002872157949,0.23480469221432154 l -6.93364230311165 -21.71953575965565" fill="#e7ff1a" stroke="none" /><path d="M 105.69591212413111 120.21278271476187 l 11.918834819118025 42.29574002578579 a64.94301136442834,64.94301136442834 0 0,0 -1.0756374872313161,0.29316978029234164 l -11.191015930952014 -42.494110300222275" fill="#35ff64" stroke="none" /><path d="M 105.3480935250658 120.30758222061773 l 7.294050573518539 27.696698094158524 a49.64105897288036,49.64105897288036 0 0,0 -0.8259201544671567,0.20994567352990756 l -6.817525125825984 -27.8178289995237" fill="#a3ff22" stroke="none" /><path d="M 104.9986988182912 120.39639698878246 l 5.721951951116777 23.347516581447557 a45.03845387398819,45.03845387398819 0 0,0 -0.7525021576024777,0.17758846023703964 l -5.32031763977442 -23.442301185330823" fill="#d8ff1c" stroke="none" /><path d="M 104.64783097203109 120.47920084513623 l 5.06184233060541 22.303411281236983 a43.87060127237406,43.87060127237406 0 0,0 -0.735851170173643,0.16037533764177042 l -4.678228743812631 -22.387018077012474" fill="#e6ff1a" stroke="none" /><path d="M 104.29559338865022 120.5559693870025 l 2.5762197131976343 12.328143929684948 a33.59444483737556,33.59444483737556 0 0,0 -0.5655121103166001,0.11311826015366878 l -2.3642111173500755 -12.370551586501477" fill="#ff940d" stroke="none" /><path d="M 103.94208987418118 120.62667999033965 l 9.169425325374197 47.97830793269152 a69.84666204442003,69.84666204442003 0 0,0 -1.1796278573596901,0.21496749108237054 l -8.34446273446345 -48.128643597705256" fill="#3bff9c" stroke="none" /><path d="M 103.58742460773223 120.69131181640829 l 3.895452751075299 22.467936291917383 a43.8031294640345,43.8031294640345 0 0,0 -0.7419885041445663,0.12209392599724413 l -3.5091867438776605 -22.531496216410297" fill="#e7ff1a" stroke="none" /><path d="M 103.2317021107853 120.74984581791261 l 3.551520676946153 22.80331043502452 a44.07822059680673,44.07822059680673 0 0,0 -0.7486473655412944,0.11002538164665254 l -3.159548205797173 -22.860916889970056" fill="#e4ff1a" stroke="none" /><path d="M 102.875027216393 120.80226474461374 l 2.353251534078878 17.02695582965424 a38.18880500813367,38.18880500813367 0 0,0 -0.650159273614115,0.08417613461147051 l -2.0606144385739875 -17.064843560466105" fill="#ffd113" stroke="none" /><path d="M 102.51750503828377 120.84855314841334 l 2.7993343238067583 23.182503924540118 a44.350904926099986,44.350904926099986 0 0,0 -0.756635093644661,0.08478254043266303 l -2.400963328561298 -23.22714222547975" fill="#e1ff1b" stroke="none" /><path d="M 101.44090949804482 120.95050786540614 l 1.1174814942056914 16.24793567227493 a37.28631875226186,37.28631875226186 0 0,0 -0.6389377329138384,0.03843690738974176 l -0.8383994091593878 -16.264724557489366" fill="#ffc512" stroke="none" /><path d="M 101.08105385017728 120.97215588758144 l 1.8426630739014223 35.747171362289976 a56.79463182669776,56.79463182669776 0 0,0 -0.974093491435085,0.04183176578855109 l -1.2287438218655078 -35.773535696504354" fill="#55ff2b" stroke="none" /><path d="M 100.72087961077811 120.9876233191556 l 1.2918815291698738 37.61172115538954 a58.63390128801673,58.63390128801673 0 0,0 -1.0062322556329282,0.0259169735535679 l -0.6460359594662016 -37.628355846293154" fill="#43ff2d" stroke="none" /><line stroke="#e1ed5e" stroke-width="0.3" x1="101.45913802915013" x2="101.54496967792366" y1="184.9874750549273" y2="189.98673829345242" /><path d="M 101.47630435890484 185.9873277026323 a86.0,86.0 0 0,1 -42.54439059252881,-10.42667462771756" fill="none" id="id31" stroke="none" /><text fill="#e1ed5e" style="font-size:6.75px; font-family:Arial;" text-anchor="middle"><textPath startOffset="22.145653131862474" xlink:href="#id31">July</textPath></text><path d="M 100.0 121.0 l 1.6626021369718983e-15 13.576176724011091 a34.57617672401109,34.57617672401109 0 0,0 -0.5935460513014077,-0.005094878991678205 l 0.23305312645255388 -13.574176243213849" fill="#ffa10e" stroke="none" /><path d="M 99.63950707515114 120.99690560180557 l -0.4927625987829861 28.700950996707935 a49.705180770972156,49.705180770972156 0 0,0 -0.8530040653126305,-0.021970358908721465 l 0.9853799781663606 -28.688262920449166" fill="#a2ff22" stroke="none" /><path d="M 99.27912038922189 120.98762331915562 l -0.9290338407602708 27.047806608899524 a48.06375706049894,48.06375706049894 0 0,0 -0.8243489115205368,-0.035401089215755494 l 1.3932085128816465 -27.02787295125794" fill="#b5ff20" stroke="none" /><path d="M 98.91894614982273 120.97215588758144 l -0.4409423479516118 8.554163751566131 a29.565520862319175,29.565520862319175 0 0,0 -0.5066342697357876,-0.030477859583429735 l 0.5877209698198458 -8.54533391415801" fill="#ff5d08" stroke="none" /><path d="M 98.55909050195518 120.95050786540614 l -2.039248292418059 29.6502226182783 a50.720266400414246,50.720266400414246 0 0,0 -0.8681160160747005,-0.0671976699935846 l 2.5479333032679956 -29.61084718128966" fill="#97ff23" stroke="none" /><path d="M 98.19965949673042 120.92268563240118 l -2.4199795993545843 28.123831187581956 a49.2277555241096,49.2277555241096 0 0,0 -0.8413268071989839,-0.07967452336592765 l 2.902405969938583 -28.078144908710843" fill="#a8ff21" stroke="none" /><path d="M 97.84075906011543 120.88869738790638 l -1.0109999556455445 9.780507465644622 a30.832621583069567,30.832621583069567 0 0,0 -0.5260105415591503,-0.05894057833469924 l 1.178746398805494 -9.761711126802952" fill="#ff6e0a" stroke="none" /><path d="M 97.12497278360702 120.80226474461374 l -3.345469726646991 24.206152398137444 a45.436243197630986,45.436243197630986 0 0,0 -0.771712725909456,-0.1134151953214653 l 3.760507558164132 -24.145156129517098" fill="#d4ff1c" stroke="none" /><path d="M 96.76829788921471 120.74984581791261 l -4.902883086147863 31.48002650408233 a52.85954066294994,52.85954066294994 0 0,0 -0.8953965615282226,-0.14733716346111386 l 5.442557150729149 -31.391223342125546" fill="#7fff26" stroke="none" /><path d="M 96.41257539226777 120.69131181640829 l -4.171806323286402 24.061870258327076 a45.4208429078027,45.4208429078027 0 0,0 -0.7671045405824486,-0.1397920008908502 l 4.584245597419908 -23.98671008350486" fill="#d4ff1c" stroke="none" /><path d="M 95.70440661134978 120.55596938700252 l -8.329837614311286 39.861288419640005 a61.722334279293484,61.722334279293484 0 0,0 -1.0352821841506747,-0.22563493348593083 l 9.012882215081097 -39.712422028020356" fill="#31ff3e" stroke="none" /><path d="M 95.35216902796893 120.47920084513623 l -5.761954310353485 25.388233843336614 a47.033872842098305,47.033872842098305 0 0,0 -0.7858416031132862,-0.1854564785989862 l 6.19692806720666 -25.285581221091398" fill="#c1ff1e" stroke="none" /><path d="M 95.00130118170881 120.39639698878247 l -5.490821914234114 22.404427157647877 a44.06745502989403,44.06745502989403 0 0,0 -0.7331874061177921,-0.18637337152809577 l 5.874614613577285 -22.306868554284517" fill="#e4ff1a" stroke="none" /><path d="M 94.30408787586889 120.21278271476187 l -6.3183221634907465 22.421496369553683 a44.29473533680019,44.29473533680019 0 0,0 -0.7301037686209534,-0.21252256639922806 l 6.7022859444933065 -22.30973010885194" fill="#e1ff1b" stroke="none" /><path d="M 93.95794788825049 120.11202640906438 l -4.350116940491915 14.48012449603959 a36.11944188178785,36.11944188178785 0 0,0 -0.592288959402013,-0.1834926336413599 l 4.598046532765562 -14.40331527459158" fill="#ffb610" stroke="none" /><path d="M 93.61358852112213 120.00534299687104 l -7.465855074106486 23.386684684569225 a45.54946053425668,45.54946053425668 0 0,0 -0.7428406926378275,-0.24418649036102857 l 7.866218504392057 -23.255077272806176" fill="#d2ff1c" stroke="none" /><path d="M 93.27111125876986 119.89276391827306 l -7.970470635161036 23.563280173035004 a45.87481808293096,45.87481808293096 0 0,0 -0.7438147983677452,-0.2587373980653863 l 8.373791205573804 -23.42298434240103" fill="#cfff1d" stroke="none" /><path d="M 92.93061703081489 119.77432235084164 l -3.3635124816020214 9.408343038168221 a30.991503137053055,30.991503137053055 0 0,0 -0.49942194610115054,-0.18339465632310417 l 3.524523579357291 -9.349217532836398" fill="#ff700a" stroke="none" /><path d="M 92.59220618246901 119.65005319985036 l -8.064371030064375 21.391702262160617 a43.861299302171545,43.861299302171545 0 0,0 -0.7022564489744442,-0.27164788065006257 l 8.430399741532348 -21.25011449337251" fill="#e7ff1a" stroke="none" /><path d="M 91.92203290615298 119.3841803445677 l -12.174282254935806 29.213845520006902 a52.64904293165391,52.64904293165391 0 0,0 -0.83126552199917,-0.3548178212380669 l 12.673982852105407 -29.00055304910943" fill="#82ff25" stroke="none" /><path d="M 91.59046798132341 119.24265499422711 l -7.823915248214888 17.902649218899622 a40.537617533010945,40.537617533010945 0 0,0 -0.6352565052513484,-0.28414215466238624 l 8.130085156321872 -17.765703313327382" fill="#ffee16" stroke="none" /><path d="M 91.26138138417905 119.09545874513695 l -12.861280769813114 28.104219573669692 a51.907275856746146,51.907275856746146 0 0,0 -0.8070624475911212,-0.3777459764445795 l 13.341831931275726 -27.879297365654587" fill="#8aff24" stroke="none" /><path d="M 90.6110303473126 118.78422872680471 l -12.115386291324139 24.238888358179683 a48.09808653444563,48.09808653444563 0 0,0 -0.735380298755952,-0.37549042033686614 l 12.529693811793674 -24.02733998616998" fill="#b5ff20" stroke="none" /><path d="M 90.28995756902619 118.62028667847754 l -11.037905868623417 21.16663990552772 a44.87178273306939,44.87178273306939 0 0,0 -0.679938243869434,-0.36202881718658403 l 11.399632928279413 -20.974040620618563" fill="#daff1b" stroke="none" /><path d="M 89.97174638481275 118.45085714620012 l -1.1066853841616937 2.0361764582849284 a23.3174915552793,23.3174915552793 0 0,0 -0.3500464157344189,-0.19416484608018447 l 1.1414759880522152 -2.0168786967715953" fill="#ff0200" stroke="none" /><line stroke="#e1ed5e" stroke-width="0.3" x1="58.13341422392154" x2="55.67067388415222" y1="173.97424548756322" y2="178.32567169271397" /><path d="M 57.64086615596768 174.84453072859336 a86.0,86.0 0 0,1 -31.369924170532247,-30.572349798747897" fill="none" id="id32" stroke="none" /><text fill="#e1ed5e" style="font-size:6.75px; font-family:Arial;" text-anchor="middle"><textPath startOffset="22.145653131862474" xlink:href="#id32">August</textPath></text><path d="M 89.34428304082925 118.09573695890944 l -15.746801777074806 26.74151199716258 a52.03337284442148,52.03337284442148 0 0,0 -0.7658005291449984,-0.45984121451519744 l 16.20353506277723 -26.467256782111463" fill="#88ff25" stroke="none" /><path d="M 89.03521579738668 117.91015095944536 l -12.11423581352399 19.787693781225748 a44.20145543980436,44.20145543980436 0 0,0 -0.6437328872950127,-0.4017369319505761 l 12.452132829608715 -19.576821052433626" fill="#e2ff1b" stroke="none" /><path d="M 88.72937992617639 117.7192867562869 l -10.514793809222045 16.531002328927553 a40.591705562545144,40.591705562545144 0 0,0 -0.5847416258982366,-0.3790224572593393 l 10.797021067377292 -16.34806602996432" fill="#ffef16" stroke="none" /><path d="M 88.4268655584334 117.5232005979908 l -11.748018209102979 17.787996911845553 a42.31733487041103,42.31733487041103 0 0,0 -0.6027272351229503,-0.4055417826525796 l 12.051641732322935 -17.583705455135853" fill="#f9ff18" stroke="none" /><path d="M 88.1277618465304 117.32195027204791 l -4.899206169211123 7.148088215429243 a29.665874810080904,29.665874810080904 0 0,0 -0.41758943897545026,-0.29150986003505847 l 5.021190699360338 -7.062933539589055" fill="#ff5e08" stroke="none" /><path d="M 87.83215693770417 117.11559508785305 l -12.310922914495746 17.316854818353022 a42.2469358686511,42.2469358686511 0 0,0 -0.5874717870076124,-0.42528426926116275 l 12.606375711877313 -17.102969777718794" fill="#faff18" stroke="none" /><path d="M 87.54013794807813 116.9041958592261 l -13.70195722173157 18.58933650835739 a44.09344200259266,44.09344200259266 0 0,0 -0.6054386766706699,-0.4543324700856544 l 14.019048887313007 -18.35138501100772" fill="#e4ff1a" stroke="none" /><path d="M 87.2517909369889 116.68781488649013 l -20.015036186945785 26.200324860005118 a53.97057318783754,53.97057318783754 0 0,0 -0.7314042100759593,-0.5687443376138792 l 20.461850341656973 -25.852879470770446" fill="#73ff27" stroke="none" /><path d="M 86.68645165197938 116.24036423190432 l -24.86950340875445 30.336750433989792 a60.227676794480566,60.227676794480566 0 0,0 -0.7939317490721146,-0.6623261022370989 l 25.386609491988455 -29.905362147840826" fill="#33ff2f" stroke="none" /><path d="M 86.40962598614128 116.0094264158162 l -14.083684056352801 16.590544405463763 a42.762268270307466,42.762268270307466 0 0,0 -0.5555440131440628,-0.47986568700074206 l 14.366407549259726 -16.3463345859983" fill="#f4ff19" stroke="none" /><path d="M 86.13680546590413 115.77377054828092 l -22.707195213761988 25.83661985092848 a55.39691323065613,55.39691323065613 0 0,0 -0.708908951957544,-0.6339107561899557 l 23.147369192542904 -25.443013564855143" fill="#64ff29" stroke="none" /><path d="M 85.86807049272751 115.53346607816431 l -23.101099558826625 25.392155132154144 a55.32815670964874,55.32815670964874 0 0,0 -0.6970563368308773,-0.6451849389238008 l 23.533585666971472 -24.991852447097965" fill="#65ff29" stroke="none" /><path d="M 85.60350026404147 115.28858382429668 l -11.170431565578031 11.862611223292518 a37.294173387939864,37.294173387939864 0 0,0 -0.4623190214185871,-0.4428911644396457 l 11.372423072861933 -11.66910792854729" fill="#ffc512" stroke="none" /><path d="M 85.34317274990678 115.03919595460226 l -19.61597613695833 20.127719589697843 a49.10536631476674,49.10536631476674 0 0,0 -0.5986366924551548,-0.5935201702729536 l 19.958604749543447 -19.78801940919623" fill="#a9ff21" stroke="none" /><path d="M 85.08716467003676 114.78537596483092 l -1.5364267931674307 1.5232950191421424 a23.163569967924776,23.163569967924776 0 0,0 -0.2775361874474569,-0.2847765779247346 l 1.562349781765697 -1.4966957491496706" fill="#ff0000" stroke="none" /><path d="M 84.58840730492382 114.26474011684316 l -14.773112551309104 13.673772427727421 a41.130000170365754,41.130000170365754 0 0,0 -0.4751539336049812,-0.5222774077496671 l 15.005664185755966 -13.41815744442008" fill="#fff617" stroke="none" /><path d="M 84.1078160697243 113.72728997021213 l -26.27936800028188 22.69949217530384 a55.72566957613517,55.72566957613517 0 0,0 -0.6191000792532693,-0.7292983366553432 l 26.66516264304226 -22.245027056198943" fill="#61ff29" stroke="none" /><path d="M 83.8745106332314 113.45245675266167 l -26.364141031881452 21.993904121963997 a55.33365332840477,55.33365332840477 0 0,0 -0.6022229748263754,-0.734614109202177 l 26.737810825946458 -21.538087731063325" fill="#65ff29" stroke="none" /><path d="M 83.64595745247003 113.17365903436017 l -18.5310113177669 14.927270976129469 a44.79541550916903,44.79541550916903 0 0,0 -0.4772494382267017,-0.6029890746903376 l 18.784527186635163 -14.606961957524451" fill="#dbff1b" stroke="none" /><path d="M 83.4222238831116 112.89097897827486 l -19.181352114306485 14.91553542145579 a45.298095930375126,45.298095930375126 0 0,0 -0.47206660590371663,-0.6179503406695864 l 19.434570697564496 -14.584064167545332" fill="#d5ff1c" stroke="none" /><path d="M 83.20337586046588 112.60449989151573 l -7.8568944401122165 5.895960062888672 a30.82309194226769,30.82309194226769 0 0,0 -0.313952243649189,-0.42593651478434846 l 7.956948703345236 -5.760217238835444" fill="#ff6e0a" stroke="none" /><path d="M 82.98947788004972 112.3143062007846 l -28.059972888579743 20.31325644792703 a55.64087854005841,55.64087854005841 0 0,0 -0.5534542586450728,-0.7785027257599813 l 28.40454224575478 -19.828576495457547" fill="#61ff29" stroke="none" /><path d="M 82.78059297857968 112.02048342749411 l -24.714943622987484 17.252950108096552 a51.141213076449304,51.141213076449304 0 0,0 -0.49633829031879406,-0.7241723988246341 l 25.007471650121605 -16.82614297420187" fill="#92ff23" stroke="none" /><path d="M 82.576782715395 111.72311816256416 l -20.77989648526494 13.981641732601245 a46.04576617868064,46.04576617868064 0 0,0 -0.4356270681368763,-0.6595949039924695 l 21.016847992322543 -13.622866950269714" fill="#ccff1d" stroke="none" /><path d="M 82.37810715431573 111.42229804090323 l -13.832675833871473 8.966173353867319 a37.484392173706986,37.484392173706986 0 0,0 -0.34536032027472635,-0.542963786296356 l 13.984553845772089 -8.727395892892291" fill="#ffc812" stroke="none" /><path d="M 82.18462484594161 111.11811171558189 l -7.370302343467227 4.599613767528027 a29.687796236362352,29.687796236362352 0 0,0 -0.2661044912573172,-0.4346616879399281 l 7.448174799179949 -4.4724149634635415" fill="#ff5e08" stroke="none" /><path d="M 81.99639281039703 110.81064883170644 l -29.576642972445182 17.759924298976802 a55.499169854141094,55.499169854141094 0 0,0 -0.4834408205855115,-0.8209882036126795 l 29.877157503160465 -17.24958492707056" fill="#63ff29" stroke="none" /><line stroke="#e1ed5e" stroke-width="0.3" x1="26.387840678322732" x2="22.057713659400548" y1="142.50000000000003" y2="145.00000000000006" /><path d="M 25.521815274538298 143.00000000000003 a86.0,86.0 0 0,1 -11.493303480769221,-40.785679425670985" fill="none" id="id33" stroke="none" /><text fill="#e1ed5e" style="font-size:6.75px; font-family:Arial;" text-anchor="middle"><textPath startOffset="21.40746469413373" xlink:href="#id33">September</textPath></text><path d="M 81.81346652052679 110.50000000000001 l -30.010147671750286 17.326366836705468 a55.65273367341091,55.65273367341091 0 0,0 -0.47057469741661917,-0.8314604007385389 l 30.303155734188284 -16.808649665867808" fill="#61ff29" stroke="none" /><path d="M 81.63589988554817 110.18625677009913 l -21.64623875860499 12.006803749044149 a45.75324198287153,45.75324198287153 0 0,0 -0.3750777798822129,-0.6901008690924838 l 21.849161888102536 -11.63344804647708" fill="#d0ff1d" stroke="none" /><path d="M 81.4637452351635 109.86951160357371 l -8.684458169345781 4.623984821124937 a30.83875242706668,30.83875242706668 0 0,0 -0.24478910440339122,-0.46941538434676167 l 8.762555342724122 -4.474223193673673" fill="#ff6e0a" stroke="none" /><path d="M 81.29705330413844 109.54985784667822 l -30.60046632128422 15.624816140602661 a55.358745880891625,55.358745880891625 0 0,0 -0.4248917840748338,-0.850068191872077 l 30.86417801857079 -15.097216092566832" fill="#64ff29" stroke="none" /><path d="M 81.1358732173502 109.22738970284198 l -31.574165135221005 15.444506369228575 a56.149120628763214,56.149120628763214 0 0,0 -0.4160937055784069,-0.8694758118339108 l 31.834638098759324 -14.90021805532956" fill="#5cff2a" stroke="none" /><path d="M 80.9802524753101 108.90220220490708 l -18.79845865092102 8.798627838452978 a41.75567150178445,41.75567150178445 0 0,0 -0.29828568598460375,-0.6518080558718605 l 18.94672880176068 -8.474630800366429" fill="#fffe18" stroke="none" /><path d="M 80.83023694016515 108.57439118712176 l -23.161869935685104 10.360009815140094 a46.373254073677515,46.373254073677515 0 0,0 -0.31879650804084037,-0.7294687984979663 l 23.33630032574291 -9.960878946866277" fill="#c9ff1d" stroke="none" /><path d="M 80.68587082218212 108.24405325689762 l -31.767656286910597 13.559723447272622 a55.54055711666801,55.54055711666801 0 0,0 -0.3667638024822393,-0.8800996102831808 l 31.99574593392932 -13.01239132754816" fill="#63ff29" stroke="none" /><path d="M 80.5471966667186 107.91128576633889 l -24.139812499510924 9.817451590780859 a47.05979476605427,47.05979476605427 0 0,0 -0.29791387962007126,-0.7509375883925318 l 24.304785054097117 -9.401612985174761" fill="#c1ff1e" stroke="none" /><path d="M 80.28708602549918 107.23885506374661 l -32.31224176703172 11.8655027480383 a55.42195699658597,55.42195699658597 0 0,0 -0.3202856798541697,-0.8958960499667024 l 32.51116761692983 -11.309071741690678" fill="#64ff29" stroke="none" /><path d="M 80.16572619554312 106.89939002012753 l -27.317857990943054 9.502569070697296 a49.9234193026465,49.9234193026465 0 0,0 -0.2746134635433881,-0.8118459093513379 l 27.47695687605881 -9.032221486871796" fill="#a0ff22" stroke="none" /><path d="M 80.05021161711548 106.5578916946017 l -25.210601410671853 8.28722542985962 a47.537756665043894,47.537756665043894 0 0,0 -0.2481816887277993,-0.7774256051247386 l 25.349147815176906 -7.85323079104349" fill="#bbff1f" stroke="none" /><path d="M 79.94057633289273 106.21446072829308 l -32.83046514212314 10.170962022795798 a55.36986921588903,55.36986921588903 0 0,0 -0.27348412361855956,-0.9103397016355275 l 33.000225585745326 -9.605884717569547" fill="#64ff29" stroke="none" /><path d="M 79.83685265289637 105.86919833188381 l -10.967587383952623 3.1925048441374044 a32.422786884314945,32.422786884314945 0 0,0 -0.1509689996520479,-0.5357357206590079 l 11.020774875679246 -3.003761199575401" fill="#ff840c" stroke="none" /><path d="M 79.73907114497094 105.5222062557868 l -33.14067977048467 9.032639641502511 a55.34957400817446,55.34957400817446 0 0,0 -0.24198443461558924,-0.9188543130433339 l 33.29085368590499 -8.462404824086374" fill="#65ff29" stroke="none" /><path d="M 79.64726062577567 105.17358676015961 l -27.42803110476459 6.972098250349848 a49.3003011343778,49.3003011343778 0 0,0 -0.20145622780154945,-0.8220101565366231 l 27.543674859082433 -6.500232269205125" fill="#a7ff21" stroke="none" /><path d="M 79.56144815229197 104.8234425847677 l -24.083170822201694 5.683562738965247 a45.74473685976679,45.74473685976679 0 0,0 -0.17380634011009777,-0.7658228039470423 l 24.17718802386946 -5.2693056010791794" fill="#d0ff1d" stroke="none" /><path d="M 79.48165901384964 104.47187691870673 l -24.231958075050883 5.281242478816026 a45.800792613766895,45.800792613766895 0 0,0 -0.1608312044475049,-0.7696355348327183 l 24.319046990322757 -4.8644904926978985" fill="#cfff1d" stroke="none" /><path d="M 79.407916724674 104.11899336999214 l -8.755427156172738 1.7513306412730456 a29.928866876715595,29.928866876715595 0 0,0 -0.09644749473052794,-0.5046540472621137 l 8.784200943185423 -1.6007740289776176" fill="#ff6209" stroke="none" /><path d="M 79.34024301695615 103.76489593502545 l -39.24042359604644 7.150912346485205 a60.886669344334486,60.886669344334486 0 0,0 -0.17855793542194384,-1.0298747215889419 l 39.35739634896061 -6.47624459197567" fill="#30ff33" stroke="none" /><path d="M 79.2786578344484 103.40968896794605 l -34.00110940228578 5.594869613206555 a55.45835176811259,55.45835176811259 0 0,0 -0.1465117430745695,-0.9407104909716463 l 34.09214263749861 -5.010370940303459" fill="#63ff29" stroke="none" /><path d="M 79.22317932658666 103.0534771498775 l -26.301080247676218 3.865353068967887 a47.58359976644404,47.58359976644404 0 0,0 -0.1118338843102915,-0.8091742768821353 l 26.363558648541723 -3.413290483885666" fill="#baff1f" stroke="none" /><path d="M 79.17382384314188 102.69636545807758 l -26.51112598960874 3.4323960305878836 a47.732398765312915,47.732398765312915 0 0,0 -0.09823308059327342,-0.813510825415201 l 26.566141156461672 -2.9767915282492834" fill="#b9ff1f" stroke="none" /><path d="M 79.13060592940153 102.33845913500099 l -8.253785456699054 0.9248538761721057 a29.305439726919182,29.305439726919182 0 0,0 -0.0517277399023634,-0.5004189599325403 l 8.268445589083084 -0.7830303939566341" fill="#ff5908" stroke="none" /><path d="M 79.0935383218832 101.97986365728391 l -34.24033483199201 3.242595308131543 a55.39353069603703,55.39353069603703 0 0,0 -0.0815244457045713,-0.9474376351222237 l 34.290952900394316 -2.6543366256336576" fill="#64ff29" stroke="none" /><path d="M 79.06263194458094 101.62068470465958 l -23.23570101734939 1.7985902115865233 a44.305208184370855,44.305208184370855 0 0,0 -0.0521873976304014,-0.7587933079866565 l 23.26315237614486 -1.3994534794455236" fill="#e1ff1b" stroke="none" /><path d="M 79.03789590574601 101.26102812881392 l -34.41553514317817 2.070353132900808 a55.47775255561539,55.47775255561539 0 0,0 -0.04902756704541834,-0.951121702861319 l 34.446004299680155 -1.4792596366627582" fill="#63ff29" stroke="none" /><line stroke="#e1ed5e" stroke-width="0.3" x1="15.003131293944662" x2="10.003315487706104" y1="100.72959589197737" y2="100.7725132973878" /><path d="M 14.003168132696942 100.73817937305945 a86.0,86.0 0 0,1 10.791469493833604,-42.45332614584628" fill="none" id="id34" stroke="none" /><text fill="#e1ed5e" style="font-size:6.75px; font-family:Arial;" text-anchor="middle"><textPath startOffset="22.145653131862435" xlink:href="#id34">October</textPath></text><line stroke="#e1ed5e" stroke-width="0.3" x1="26.387840678322718" x2="22.05771365940052" y1="57.49999999999999" y2="54.99999999999999" /><path d="M 25.521815274538284 56.99999999999999 a86.0,86.0 0 0,1 29.574782752854787,-30.34633250058573" fill="none" id="id35" stroke="none" /><text fill="#e1ed5e" style="font-size:6.75px; font-family:Arial;" text-anchor="middle"><textPath startOffset="21.40746469413373" xlink:href="#id35">November</textPath></text><line stroke="#e1ed5e" stroke-width="0.3" x1="56.869717070023135" x2="54.33264160355391" y1="26.7553504044142" y2="22.446841604673864" /><path d="M 56.362301976729285 25.89364864446614 a86.0,86.0 0 0,1 42.16139366436587,-11.88097634709845" fill="none" id="id36" stroke="none" /><text fill="#e1ed5e" style="font-size:6.75px; font-family:Arial;" text-anchor="middle"><textPath startOffset="22.145653131862474" xlink:href="#id36">December</textPath></text></svg>